<?xml version="1.0" ?><!DOCTYPE svg  PUBLIC '-//W3C//DTD SVG 1.1//EN'  'http://www.w3.org/Graphics/SVG/1.1/DTD/svg11.dtd'><svg id="Layer_1" style="enable-background:new 0 0 750 749.999;" version="1.1" viewBox="0 0 750 749.999" xml:space="preserve" xmlns="http://www.w3.org/2000/svg" xmlns:xlink="http://www.w3.org/1999/xlink"><g><g><g><g><g id="XMLID_2_"><g><path d="M176.235,592.067c-0.785,0.039-1.571,0.064-2.357,0.084         C174.664,592.132,175.45,592.106,176.235,592.067z" style="fill:#F9EB00;"/><path d="M176.529,592.049c-0.098,0.005-0.196,0.013-0.295,0.018         C176.333,592.062,176.431,592.055,176.529,592.049z" style="fill:#F9EB00;"/><path d="M164.94,591.98c-0.006-0.006-0.011-0.011-0.017-0.017c-0.544-0.037-1.091-0.057-1.633-0.103         C163.84,591.9,164.39,591.94,164.94,591.98z" style="fill:#F9EB00;"/><path d="M173.37,592.17c0.169-0.004,0.338-0.014,0.507-0.018c-0.172,0.004-0.344,0.007-0.516,0.01         C173.364,592.164,173.367,592.167,173.37,592.17z" style="fill:#F9EB00;"/><path d="M191.9,590.04c-0.882,0.189-1.769,0.359-2.657,0.524         C190.131,590.402,191.017,590.227,191.9,590.04z" style="fill:#F9EB00;"/><path d="M220.23,579.34c-0.308,0.175-0.621,0.339-0.93,0.51c0,0,0,0,0,0         C219.61,579.68,219.92,579.51,220.23,579.34z" style="fill:#F9EB00;"/><path d="M130.8,401.6c0.678-0.301,1.356-0.605,2.04-0.891         C132.157,400.997,131.477,401.296,130.8,401.6z" style="fill:#F9EB00;"/><path d="M138.29,398.62c0,0.004,0.001,0.009,0.001,0.013c0.61-0.214,1.215-0.441,1.829-0.643         C139.51,398.2,138.9,398.41,138.29,398.62z" style="fill:#F9EB00;"/><path d="M147.85,395.79c0,0.003,0.001,0.006,0.001,0.009c0.676-0.164,1.35-0.34,2.029-0.489         C149.2,395.46,148.52,395.62,147.85,395.79z" style="fill:#F9EB00;"/><path d="M246.22,558.27c-0.89,1.014-1.815,2.003-2.749,2.984c0.003,0.002,0.006,0.004,0.009,0.006         C244.41,560.28,245.33,559.28,246.22,558.27z" style="fill:#F9EB00;"/><path d="M250.93,552.46c-0.344,0.458-0.704,0.904-1.056,1.356c0.002,0.001,0.004,0.003,0.006,0.004         C250.23,553.37,250.58,552.91,250.93,552.46z" style="fill:#F9EB00;"/><path d="M157.49,393.94c0,0.004,0.001,0.008,0.001,0.012c0.683-0.095,1.364-0.201,2.049-0.282         C158.85,393.76,158.17,393.84,157.49,393.94z" style="fill:#F9EB00;"/><path d="M169.027,393.002c0.727-0.016,1.454-0.032,2.183-0.032         C170.482,392.97,169.755,392.983,169.027,393.002z" style="fill:#F9EB00;"/><path d="M167.271,393.058c0.585-0.022,1.17-0.041,1.755-0.056         C168.441,393.015,167.856,393.035,167.271,393.058z" style="fill:#F9EB00;"/><path d="M161.59,393.45c-0.69,0.07-1.37,0.14-2.05,0.22c0.682-0.083,1.367-0.149,2.05-0.217         C161.59,393.452,161.59,393.451,161.59,393.45z" style="fill:#F9EB00;"/><path d="M167.22,393.06C167.22,393.06,167.22,393.06,167.22,393.06c0.017,0,0.034-0.001,0.051-0.002         C167.254,393.059,167.237,393.059,167.22,393.06z" style="fill:#F9EB00;"/><path d="M262.11,533.48c-0.001-0.001-0.001-0.001-0.002-0.002c-0.012,0.027-0.023,0.054-0.035,0.081         C262.085,533.532,262.098,533.506,262.11,533.48z" style="fill:#F9EB00;"/><path d="M262.073,533.558c-0.559,1.243-1.146,2.477-1.753,3.701         C260.932,536.038,261.512,534.802,262.073,533.558z" style="fill:#F9EB00;"/><path d="M265.411,525.135c-0.164,0.476-0.33,0.951-0.502,1.425         C265.081,526.086,265.248,525.612,265.411,525.135z" style="fill:#F9EB00;"/><path d="M197.02,396.39l0,0.003c0.102,0.027,0.204,0.056,0.307,0.084         C197.224,396.448,197.123,396.417,197.02,396.39z" style="fill:#F9EB00;"/><path d="M269.771,507.487c0.088-0.575,0.166-1.151,0.243-1.728         C269.937,506.336,269.857,506.912,269.771,507.487z" style="fill:#F9EB00;"/><path d="M268.278,515.215c-0.246,1.048-0.498,2.095-0.778,3.134         C267.778,517.309,268.034,516.263,268.278,515.215z" style="fill:#F9EB00;"/><path d="M270.19,504.363c-0.056,0.466-0.113,0.932-0.175,1.397         C270.077,505.295,270.134,504.828,270.19,504.363z" style="fill:#F9EB00;"/><path d="M268.544,514.062c-0.084,0.385-0.177,0.769-0.266,1.154         C268.368,514.831,268.459,514.447,268.544,514.062z" style="fill:#F9EB00;"/><path d="M268.57,513.95c-0.001-0.001-0.002-0.001-0.002-0.002c-0.008,0.038-0.015,0.076-0.023,0.114         C268.552,514.024,268.562,513.987,268.57,513.95z" style="fill:#F9EB00;"/><path d="M269.74,507.71c0.011-0.074,0.02-0.148,0.031-0.223c-0.011,0.073-0.025,0.146-0.036,0.219         C269.737,507.707,269.738,507.708,269.74,507.71z" style="fill:#F9EB00;"/><path d="M229.706,411.949c0.917,0.655,1.815,1.327,2.694,2.01         C231.514,413.273,230.614,412.605,229.706,411.949z" style="fill:#F9EB00;"/><path d="M229.64,411.9c0,0.001,0.001,0.002,0.001,0.003c0.022,0.016,0.044,0.031,0.066,0.046         C229.684,411.933,229.663,411.916,229.64,411.9z" style="fill:#F9EB00;"/></g><g><path d="M387.718,670.324c-0.018,0.004-0.035,0.008-0.053,0.012         C387.682,670.332,387.7,670.328,387.718,670.324z" style="fill:#F9EB00;"/><path d="M385.569,670.739c-0.038,0.006-0.075,0.014-0.112,0.021         C385.494,670.753,385.532,670.745,385.569,670.739z" style="fill:#F9EB00;"/><path d="M387.665,670.336c-0.694,0.146-1.393,0.28-2.095,0.403         C386.272,670.617,386.97,670.482,387.665,670.336z" style="fill:#F9EB00;"/><path d="M385.457,670.759c-0.731,0.126-1.467,0.24-2.207,0.34         C383.99,671,384.725,670.885,385.457,670.759z" style="fill:#F9EB00;"/><path d="M415.716,656.202c-0.04,0.036-0.079,0.073-0.12,0.108         C415.637,656.274,415.676,656.237,415.716,656.202z" style="fill:#F9EB00;"/><path d="M415.596,656.31c-0.705,0.623-1.424,1.231-2.156,1.82         C414.174,657.541,414.89,656.931,415.596,656.31z" style="fill:#F9EB00;"/><path d="M313.569,613.13c-0.039-0.837-0.075-1.675-0.079-2.521         C313.496,611.457,313.526,612.296,313.569,613.13z" style="fill:#F9EB00;"/><path d="M314.88,623.18c-0.164-0.747-0.298-1.503-0.434-2.259c-0.002,0-0.004-0.001-0.006-0.001         C314.58,621.68,314.72,622.44,314.88,623.18z" style="fill:#F9EB00;"/><path d="M313.68,614.93c0.001,0,0.003,0.001,0.004,0.001c-0.005-0.064-0.011-0.128-0.016-0.192         C313.673,614.802,313.675,614.867,313.68,614.93z" style="fill:#F9EB00;"/><path d="M313.668,614.739c-0.04-0.533-0.072-1.07-0.099-1.609         C313.594,613.669,313.629,614.204,313.668,614.739z" style="fill:#F9EB00;"/><path d="M435.56,620.91c-0.002,0-0.004,0.001-0.006,0.001c-0.136,0.756-0.27,1.512-0.434,2.259         C435.28,622.42,435.42,621.66,435.56,620.91z" style="fill:#F9EB00;"/><path d="M436.51,610.6c-0.004,0.841-0.04,1.675-0.078,2.508         C436.474,612.275,436.504,611.439,436.51,610.6z" style="fill:#F9EB00;"/><path d="M436.332,614.731c0.04-0.539,0.075-1.08,0.1-1.623         C436.404,613.65,436.372,614.191,436.332,614.731z" style="fill:#F9EB00;"/><path d="M436.32,614.92c0.005-0.063,0.007-0.126,0.012-0.189c-0.005,0.063-0.011,0.126-0.016,0.19         C436.317,614.92,436.318,614.92,436.32,614.92z" style="fill:#F9EB00;"/><path d="M436.08,602.81c0.081,0.666,0.124,1.342,0.182,2.015c0.006-0.002,0.012-0.003,0.018-0.005         C436.22,604.15,436.16,603.48,436.08,602.81z" style="fill:#F9EB00;"/><path d="M313.72,604.83c0.006,0.002,0.012,0.003,0.018,0.005c0.061-0.696,0.107-1.395,0.192-2.085         C313.85,603.44,313.78,604.14,313.72,604.83z" style="fill:#F9EB00;"/><path d="M430.367,583.398c0.396,0.818,0.793,1.635,1.153,2.472         C431.157,585.033,430.767,584.212,430.367,583.398z" style="fill:#F9EB00;"/><path d="M425.853,575.61c0.305,0.452,0.61,0.904,0.906,1.362         C426.463,576.514,426.16,576.06,425.853,575.61z" style="fill:#F9EB00;"/><path d="M424.28,573.38c0.546,0.727,1.06,1.479,1.573,2.231         C425.343,574.856,424.823,574.108,424.28,573.38z" style="fill:#F9EB00;"/><path d="M426.79,577.02c-0.01-0.016-0.021-0.031-0.031-0.047c0.01,0.016,0.019,0.032,0.029,0.048         C426.789,577.02,426.789,577.02,426.79,577.02z" style="fill:#F9EB00;"/><path d="M338.77,560.5c0.001,0,0.003,0,0.004,0.001c0.095-0.069,0.192-0.134,0.288-0.203         C338.966,560.366,338.865,560.43,338.77,560.5z" style="fill:#F9EB00;"/><path d="M411.142,560.436c-0.779-0.566-1.567-1.118-2.372-1.646         C409.574,559.322,410.366,559.866,411.142,560.436z" style="fill:#F9EB00;"/><path d="M411.142,560.436c0.025,0.018,0.048,0.037,0.073,0.055c0.002,0,0.003,0,0.005-0.001         C411.195,560.471,411.168,560.454,411.142,560.436z" style="fill:#F9EB00;"/><path d="M406.23,557.21c-0.004,0.001-0.007,0.001-0.011,0.002c0.431,0.256,0.867,0.502,1.291,0.768         C407.09,557.72,406.66,557.46,406.23,557.21z" style="fill:#F9EB00;"/><path d="M354.232,552.296c0.827-0.297,1.654-0.594,2.498-0.856         C355.889,551.708,355.058,551.997,354.232,552.296z" style="fill:#F9EB00;"/></g><g><path d="M551.36,588.36c0.002-0.001,0.003-0.003,0.004-0.004c-0.793-0.227-1.587-0.449-2.374-0.696         C549.78,587.9,550.57,588.14,551.36,588.36z" style="fill:#F9EB00;"/><path d="M652.92,426.25c-0.002,0.009-0.004,0.019-0.005,0.028c0.583,0.656,1.181,1.301,1.745,1.972         C654.09,427.58,653.51,426.91,652.92,426.25z" style="fill:#F9EB00;"/><path d="M558.09,590.03c0.024,0.005,0.049,0.009,0.073,0.015c-0.024-0.005-0.048-0.01-0.072-0.016         C558.091,590.029,558.09,590.029,558.09,590.03z" style="fill:#F9EB00;"/><path d="M538.34,583.65c-0.71-0.313-1.407-0.657-2.11-0.988c-0.003,0.003-0.007,0.005-0.01,0.008         C536.92,583,537.63,583.33,538.34,583.65z" style="fill:#F9EB00;"/><path d="M609.7,397.95c0.674,0.219,1.339,0.466,2.009,0.701c0-0.004,0.001-0.007,0.001-0.011         C611.04,398.4,610.37,398.18,609.7,397.95z" style="fill:#F9EB00;"/><path d="M506.48,561.27c-0.902-0.933-1.762-1.897-2.618-2.865         C504.72,559.373,505.586,560.339,506.48,561.27z" style="fill:#F9EB00;"/><path d="M588.78,393.491c0.288,0.029,0.576,0.063,0.864,0.096         C589.356,393.554,589.068,393.52,588.78,393.491z" style="fill:#F9EB00;"/><path d="M589.644,393.586c0.619,0.069,1.237,0.148,1.855,0.229         C590.882,393.732,590.264,393.657,589.644,393.586z" style="fill:#F9EB00;"/><path d="M588.41,393.45c0,0.003-0.001,0.005-0.001,0.008c0.123,0.012,0.247,0.02,0.371,0.033         C588.657,393.478,588.533,393.461,588.41,393.45z" style="fill:#F9EB00;"/><path d="M578.76,392.97c0.825,0,1.648,0.023,2.472,0.044         C580.411,392.988,579.589,392.97,578.76,392.97z" style="fill:#F9EB00;"/><path d="M498.8,552.19c-0.415-0.549-0.805-1.115-1.206-1.673c-0.001,0.001-0.003,0.002-0.004,0.003         C497.99,551.08,498.4,551.64,498.8,552.19z" style="fill:#F9EB00;"/><path d="M494.44,545.85c-0.725-1.143-1.41-2.31-2.085-3.484         C493.03,543.54,493.716,544.705,494.44,545.85z" style="fill:#F9EB00;"/><path d="M531.146,405.108c-0.559,0.303-1.123,0.598-1.677,0.912c-0.375,0.213-0.738,0.446-1.11,0.664         c0.371-0.217,0.739-0.442,1.11-0.654C530.022,405.715,530.585,405.412,531.146,405.108z" style="fill:#F9EB00;"/><path d="M540.272,400.733c0.142-0.059,0.286-0.117,0.428-0.175         C540.558,400.617,540.415,400.674,540.272,400.733z" style="fill:#F9EB00;"/><path d="M531.87,404.71c-0.244,0.13-0.481,0.266-0.724,0.398c0.241-0.131,0.481-0.264,0.723-0.393         C531.869,404.713,531.87,404.711,531.87,404.71z" style="fill:#F9EB00;"/><path d="M516.533,414.796c0.4-0.319,0.796-0.643,1.201-0.956         C517.329,414.153,516.933,414.476,516.533,414.796z" style="fill:#F9EB00;"/><path d="M517.734,413.84c0.559-0.432,1.127-0.851,1.695-1.27         C518.86,412.99,518.293,413.409,517.734,413.84z" style="fill:#F9EB00;"/><path d="M527.11,407.42c-0.001,0.004-0.002,0.009-0.003,0.013c0.416-0.252,0.833-0.503,1.252-0.749         C527.942,406.928,527.523,407.165,527.11,407.42z" style="fill:#F9EB00;"/><path d="M520.27,411.94c-0.284,0.205-0.56,0.423-0.842,0.631c0.277-0.204,0.556-0.404,0.835-0.606         C520.265,411.956,520.268,411.948,520.27,411.94z" style="fill:#F9EB00;"/><path d="M504.38,426.22c0.579-0.647,1.175-1.276,1.77-1.906c0.003-0.008,0.007-0.016,0.01-0.024         C505.56,424.92,504.97,425.57,504.38,426.22z" style="fill:#F9EB00;"/></g><g><path d="M639.819,251.194c-0.099-0.969-0.221-1.936-0.367-2.9         C639.596,249.258,639.724,250.225,639.819,251.194z" style="fill:#F9EB00;"/><path d="M600.873,200.116c-0.594-0.231-1.192-0.453-1.793-0.667         C599.682,199.661,600.279,199.886,600.873,200.116z" style="fill:#F9EB00;"/><path d="M602.372,200.725c0.07,0.029,0.14,0.057,0.209,0.087c-0.001-0.001-0.001-0.001-0.002-0.002         C602.511,200.78,602.441,200.754,602.372,200.725z" style="fill:#F9EB00;"/><path d="M639.452,248.294c-0.022-0.149-0.042-0.298-0.066-0.446         C639.41,247.997,639.429,248.146,639.452,248.294z" style="fill:#F9EB00;"/><path d="M602.372,200.725c-0.497-0.208-0.996-0.414-1.499-0.609         C601.377,200.312,601.876,200.516,602.372,200.725z" style="fill:#F9EB00;"/><polygon points="639.819,251.194 639.82,251.199 639.82,251.2        " style="fill:#F9EB00;"/><path d="M639.386,247.848c-0.16-1.003-0.336-2.003-0.546-2.998         C639.048,245.845,639.228,246.845,639.386,247.848z" style="fill:#F9EB00;"/><path d="M572.07,196.27c0.426-0.047,0.855-0.069,1.282-0.107c-0.004-0.004-0.008-0.009-0.012-0.014         C572.92,196.18,572.5,196.22,572.07,196.27z" style="fill:#F9EB00;"/><path d="M580.68,195.95c0.001,0.001,0.002,0.002,0.003,0.003c0.413,0.016,0.827,0.031,1.237,0.057         C581.51,195.98,581.1,195.96,580.68,195.95z" style="fill:#F9EB00;"/><path d="M621.68,301.39c-0.66,0.645-1.352,1.261-2.043,1.878         C620.332,302.655,621.017,302.034,621.68,301.39z" style="fill:#F9EB00;"/><path d="M612.198,308.934c-0.787,0.51-1.574,1.02-2.388,1.496         C610.622,309.949,611.414,309.446,612.198,308.934z" style="fill:#F9EB00;"/><path d="M604.7,313.12c-0.001-0.005-0.003-0.01-0.004-0.016c-0.631,0.294-1.255,0.603-1.896,0.876         C603.44,313.71,604.07,313.42,604.7,313.12z" style="fill:#F9EB00;"/><path d="M532.88,216.32c0.003,0.003,0.007,0.007,0.01,0.01c0.462-0.511,0.909-1.036,1.39-1.53         C533.81,215.3,533.34,215.8,532.88,216.32z" style="fill:#F9EB00;"/><path d="M517.896,267.071c-0.005-0.029-0.008-0.058-0.012-0.086c-0.001-0.002-0.003-0.003-0.004-0.005         C517.885,267.01,517.891,267.04,517.896,267.071z" style="fill:#F9EB00;"/><path d="M517.896,267.071c0.072,0.449,0.152,0.897,0.234,1.345         C518.049,267.968,517.967,267.521,517.896,267.071z" style="fill:#F9EB00;"/><path d="M518.13,268.416c0.168,0.926,0.349,1.85,0.56,2.774         C518.475,270.27,518.301,269.343,518.13,268.416z" style="fill:#F9EB00;"/></g><g><path d="M294.212,81.706c0.668-0.923,1.348-1.838,2.048-2.737         C295.563,79.868,294.88,80.782,294.212,81.706z" style="fill:#F9EB00;"/><path d="M293.001,83.439c0.4-0.58,0.798-1.162,1.21-1.733         C293.799,82.277,293.402,82.859,293.001,83.439z" style="fill:#F9EB00;"/><path d="M462.03,91.52c-0.007-0.002-0.015-0.004-0.022-0.007c0.24,0.432,0.499,0.851,0.732,1.287         C462.51,92.37,462.27,91.94,462.03,91.52z" style="fill:#F9EB00;"/><path d="M292.38,84.33c0.003-0.001,0.007-0.002,0.01-0.003c0.201-0.298,0.407-0.592,0.611-0.887         C292.796,83.738,292.582,84.029,292.38,84.33z" style="fill:#F9EB00;"/><path d="M276.08,128.35c0.063-0.562,0.154-1.117,0.227-1.676c-0.006,0.002-0.011,0.004-0.017,0.007         C276.21,127.23,276.14,127.79,276.08,128.35z" style="fill:#F9EB00;"/><path d="M473.71,126.69c-0.006-0.002-0.012-0.005-0.018-0.007c0.081,0.616,0.179,1.228,0.248,1.847         C473.87,127.92,473.79,127.3,473.71,126.69z" style="fill:#F9EB00;"/><path d="M275.76,148.09c0.06,0.73,0.12,1.47,0.2,2.2c-0.078-0.731-0.127-1.469-0.189-2.205         C275.767,148.087,275.764,148.088,275.76,148.09z" style="fill:#F9EB00;"/><path d="M472.88,158.23c-0.004-0.002-0.008-0.003-0.012-0.005c-0.132,0.699-0.251,1.4-0.398,2.095         C472.61,159.63,472.75,158.93,472.88,158.23z" style="fill:#F9EB00;"/><path d="M276.21,152.47c0.006-0.003,0.012-0.005,0.018-0.008c-0.091-0.724-0.195-1.445-0.268-2.172         C276.03,151.02,276.12,151.74,276.21,152.47z" style="fill:#F9EB00;"/><path d="M472.01,162.41c0.16-0.69,0.31-1.39,0.46-2.09C472.326,161.018,472.17,161.714,472.01,162.41         C472.01,162.409,472.01,162.41,472.01,162.41z" style="fill:#F9EB00;"/><path d="M467.33,177.22c-0.003-0.002-0.007-0.003-0.01-0.005c-0.259,0.639-0.507,1.283-0.78,1.915         C466.81,178.5,467.08,177.86,467.33,177.22z" style="fill:#F9EB00;"/><path d="M280.7,171.89c0.009-0.004,0.017-0.008,0.026-0.012c-0.188-0.558-0.398-1.106-0.576-1.668         C280.32,170.77,280.51,171.33,280.7,171.89z" style="fill:#F9EB00;"/><path d="M283.48,179.1c-0.277-0.634-0.518-1.287-0.781-1.929c-0.007,0.003-0.013,0.006-0.02,0.009         C282.94,177.82,283.2,178.46,283.48,179.1z" style="fill:#F9EB00;"/><path d="M288.79,189.67c0.004-0.002,0.008-0.004,0.013-0.006c-0.345-0.598-0.702-1.188-1.033-1.794         C288.1,188.48,288.44,189.08,288.79,189.67z" style="fill:#F9EB00;"/><path d="M433.51,220.38c0.032-0.023,0.062-0.049,0.094-0.072c-0.032,0.024-0.065,0.048-0.097,0.071         C433.508,220.379,433.509,220.379,433.51,220.38z" style="fill:#F9EB00;"/><path d="M437.37,217.44c-1.229,0.985-2.489,1.94-3.766,2.868         C434.88,219.379,436.14,218.429,437.37,217.44z" style="fill:#F9EB00;"/></g></g></g></g><g><path d="M374.962,264.156c61.17,0,110.843,49.748,110.843,110.843      c0,61.095-49.673,110.843-110.843,110.843c-61.095,0-110.843-49.748-110.843-110.843      C264.119,313.904,313.867,264.156,374.962,264.156z M481.673,375c0-58.841-47.869-106.71-106.71-106.71      c-58.841,0-106.71,47.869-106.71,106.71c0,58.841,47.869,106.71,106.71,106.71C433.803,481.71,481.673,433.841,481.673,375z" style="fill:#123D86;"/><path d="M375,5c204.343,0,370,165.656,370,370c0,204.344-165.656,370-370,370      c-204.344,0-370-165.655-370-370C5,170.656,170.656,5,375,5L375,5z M375,244.452c38.743,0,72.545-21.077,90.611-52.322      c8.92-15.395,13.975-33.233,13.975-52.264C479.586,82.09,432.775,35.28,375,35.28c-57.775,0-104.587,46.811-104.587,104.586      C270.413,197.641,317.225,244.452,375,244.452L375,244.452z M578.674,323.956c11.294,0,22.736-2.881,33.221-8.948      c31.814-18.349,42.664-59.025,24.314-90.838c-12.301-21.328-34.644-33.262-57.617-33.262c-11.294,0-22.736,2.881-33.221,8.948      c-31.814,18.349-42.664,59.025-24.315,90.838C533.359,312.023,555.701,323.956,578.674,323.956L578.674,323.956z       M171.326,323.956c22.975,0,45.314-11.932,57.617-33.262c18.349-31.813,7.442-72.489-24.372-90.838      c-10.465-6.065-21.898-8.948-33.184-8.948c-22.962,0-45.314,11.932-57.655,33.262c-18.349,31.813-7.442,72.489,24.372,90.838      C148.588,321.074,160.034,323.956,171.326,323.956L171.326,323.956z M375,293.706c6.76,0,12.214-5.454,12.214-12.157      c0-6.761-5.454-12.214-12.214-12.214c-6.761,0-12.214,5.454-12.214,12.214C362.786,288.252,368.24,293.706,375,293.706      L375,293.706z M455.983,340.483c2.054,0,4.136-0.519,6.049-1.615c5.851-3.408,7.84-10.85,4.488-16.701      c-2.249-3.928-6.367-6.115-10.602-6.115c-2.074,0-4.176,0.525-6.1,1.627c-5.794,3.408-7.84,10.85-4.431,16.702      C447.643,338.282,451.753,340.483,455.983,340.483L455.983,340.483z M293.974,340.483c4.248,0,8.382-2.201,10.639-6.102      c3.351-5.851,1.363-13.293-4.488-16.702c-1.924-1.102-4.02-1.627-6.086-1.627c-4.218,0-8.31,2.187-10.559,6.115      c-3.408,5.851-1.364,13.293,4.431,16.701C289.823,339.964,291.913,340.483,293.974,340.483L293.974,340.483z M375,418.403      c23.916,0,43.345-19.429,43.345-43.403c0-23.974-19.428-43.346-43.345-43.346c-23.974,0-43.403,19.372-43.403,43.346      C331.598,398.973,351.027,418.403,375,418.403L375,418.403z M578.565,597.198c36.151,0,71.294-18.769,90.651-52.338      c28.859-49.993,11.759-113.96-38.29-142.876c-16.45-9.496-34.427-14.011-52.162-14.011c-36.165,0-71.35,18.758-90.714,52.3      c-28.859,50.049-11.759,114.017,38.29,142.876C542.821,592.671,560.817,597.198,578.565,597.198L578.565,597.198z       M171.435,597.198c17.751,0,35.741-4.526,52.225-14.049c49.993-28.859,67.149-92.827,38.29-142.876      c-19.4-33.539-54.578-52.3-90.743-52.3c-17.741,0-35.718,4.513-52.189,14.011c-49.993,28.916-67.15,92.883-38.233,142.876      C100.139,578.426,135.287,597.198,171.435,597.198L171.435,597.198z M455.917,433.947c4.235,0,8.353-2.187,10.602-6.114      c3.352-5.795,1.364-13.294-4.488-16.645c-1.924-1.102-4.02-1.627-6.086-1.627c-4.218,0-8.31,2.187-10.56,6.115      c-3.409,5.795-1.363,13.293,4.431,16.645C451.742,433.422,453.844,433.947,455.917,433.947L455.917,433.947z M294.04,433.947      c2.066,0,4.161-0.525,6.085-1.626c5.851-3.352,7.839-10.851,4.488-16.645c-2.25-3.928-6.368-6.115-10.602-6.115      c-2.074,0-4.176,0.525-6.1,1.627c-5.795,3.351-7.839,10.851-4.431,16.645C285.73,431.76,289.823,433.947,294.04,433.947      L294.04,433.947z M375,480.722c6.76,0,12.214-5.511,12.214-12.271c0-6.703-5.454-12.157-12.214-12.157      c-6.761,0-12.214,5.454-12.214,12.157C362.786,475.211,368.24,480.722,375,480.722L375,480.722z M375,676.658      c36.699,0,66.523-29.768,66.523-66.523c0-36.699-29.825-66.467-66.523-66.467c-36.756,0-66.524,29.768-66.524,66.467      C308.477,646.889,338.245,676.658,375,676.658L375,676.658z M375,0c-50.622,0-99.733,9.916-145.968,29.472      c-44.655,18.888-84.759,45.926-119.197,80.364c-34.438,34.438-61.476,74.541-80.364,119.196C9.916,275.267,0,324.378,0,375      c0,50.622,9.916,99.733,29.472,145.968c18.888,44.655,45.926,84.759,80.364,119.196c34.438,34.438,74.542,61.476,119.197,80.364      c46.235,19.556,95.346,29.472,145.968,29.472c50.622,0,99.733-9.916,145.968-29.472c44.655-18.888,84.759-45.926,119.196-80.364      c34.438-34.438,61.476-74.541,80.364-119.196C740.084,474.732,750,425.622,750,375c0-50.622-9.916-99.733-29.472-145.968      c-18.888-44.655-45.926-84.759-80.364-119.196c-34.438-34.438-74.541-61.476-119.196-80.364C474.733,9.916,425.622,0,375,0      L375,0z M375,239.452c-54.912,0-99.587-44.674-99.587-99.586S320.088,40.28,375,40.28c54.912,0,99.586,44.674,99.586,99.586      c0,17.532-4.6,34.738-13.302,49.758C443.513,220.36,410.452,239.452,375,239.452L375,239.452z M578.674,318.956      c-21.924,0-42.342-11.787-53.286-30.76c-8.211-14.236-10.397-30.813-6.155-46.678c4.243-15.869,14.413-29.127,28.636-37.33      c9.363-5.417,19.985-8.279,30.723-8.279c21.924,0,42.342,11.787,53.285,30.76c8.211,14.236,10.397,30.813,6.155,46.678      c-4.243,15.87-14.413,29.127-28.636,37.33C600.034,316.095,589.412,318.956,578.674,318.956L578.674,318.956z M171.326,318.956      c-10.738,0-21.36-2.862-30.717-8.276c-14.234-8.21-24.415-21.469-28.672-37.337c-4.257-15.868-2.081-32.444,6.127-46.674      c10.977-18.971,31.41-30.76,53.324-30.76c10.73,0,21.338,2.861,30.676,8.274c14.238,8.212,24.418,21.471,28.675,37.339      c4.257,15.868,2.081,32.444-6.127,46.674C213.668,307.17,193.25,318.956,171.326,318.956L171.326,318.956z M375,288.706      c-3.978,0-7.214-3.211-7.214-7.157c0-3.978,3.236-7.214,7.214-7.214c3.978,0,7.214,3.236,7.214,7.214      C382.214,285.495,378.978,288.706,375,288.706L375,288.706z M452.331,322.003c1.096-0.622,2.336-0.95,3.588-0.95      c2.591,0,4.991,1.379,6.263,3.6c1.977,3.45,0.781,7.889-2.665,9.896c-1.057,0.606-2.289,0.935-3.532,0.935      c-2.58,0-4.982-1.382-6.268-3.606C447.721,328.455,448.899,324.037,452.331,322.003L452.331,322.003z M290.419,334.543      c-3.428-2.036-4.603-6.451-2.618-9.859c1.29-2.253,3.674-3.632,6.239-3.632c1.253,0,2.498,0.334,3.6,0.966      c3.415,1.989,4.61,6.428,2.635,9.878c-1.276,2.206-3.694,3.587-6.3,3.587C292.731,335.483,291.502,335.158,290.419,334.543      L290.419,334.543z M375,413.403c-21.175,0-38.403-17.228-38.403-38.403c0-21.144,17.227-38.346,38.403-38.346      c21.143,0,38.345,17.202,38.345,38.346C413.345,396.175,396.144,413.403,375,413.403L375,413.403z M578.565,592.198      c-17.381,0-34.575-4.626-49.723-13.378c-23.046-13.288-39.525-34.758-46.407-60.456c-6.88-25.691-3.347-52.537,9.947-75.593      c17.732-30.715,50.832-49.798,86.382-49.798c17.37,0,34.542,4.613,49.662,13.341c47.548,27.471,63.905,88.501,36.459,136.046      C647.16,573.102,614.084,592.198,578.565,592.198L578.565,592.198z M171.435,592.198c-35.519,0-68.594-19.096-86.319-49.835      c-13.316-23.022-16.858-49.851-9.976-75.551c6.88-25.694,23.352-47.179,46.381-60.499c15.132-8.726,32.315-13.339,49.685-13.339      c35.534,0,68.646,19.084,86.415,49.804c27.43,47.57,11.075,108.601-36.461,136.042      C206.01,587.572,188.816,592.198,171.435,592.198L171.435,592.198z M455.917,428.947c-1.262,0-2.512-0.334-3.614-0.965      c-1.647-0.953-2.837-2.518-3.332-4.397c-0.486-1.845-0.228-3.754,0.725-5.374l0.015-0.025l0.014-0.025      c1.272-2.221,3.656-3.6,6.221-3.6c1.253,0,2.498,0.334,3.6,0.965c1.659,0.951,2.849,2.497,3.349,4.356      c0.501,1.861,0.251,3.796-0.704,5.447C460.909,427.568,458.509,428.947,455.917,428.947L455.917,428.947z M294.04,428.947      c-2.566,0-4.949-1.379-6.221-3.6l-0.014-0.025l-0.015-0.025c-0.953-1.621-1.211-3.53-0.725-5.376      c0.494-1.878,1.684-3.443,3.349-4.406c1.085-0.621,2.335-0.955,3.597-0.955c2.591,0,4.992,1.379,6.264,3.6      c0.965,1.669,1.215,3.604,0.714,5.465c-0.501,1.859-1.69,3.406-3.349,4.356C296.538,428.613,295.293,428.947,294.04,428.947      L294.04,428.947z M375,475.722c-3.978,0-7.214-3.262-7.214-7.271c0-3.947,3.236-7.157,7.214-7.157      c3.978,0,7.214,3.211,7.214,7.157C382.214,472.461,378.978,475.722,375,475.722L375,475.722z M375,671.658      c-33.924,0-61.524-27.599-61.524-61.523c0-33.893,27.599-61.467,61.524-61.467c33.924,0,61.523,27.574,61.523,61.467      C436.524,644.058,408.925,671.658,375,671.658L375,671.658z" style="fill:#123D86;"/><path d="M618.13,290.517c-10.819-31.051-27.415-59.408-48.513-83.783      c-1.539,0.276-3.066,0.607-4.575,1.022c21.931,24.896,39.049,54.113,49.911,86.202      C616.066,292.857,617.128,291.711,618.13,290.517z" style="fill:#123D86;"/><path d="M547.942,298.765c-5.553-12.541-12.43-24.368-20.456-35.305c0.44,3.739,1.294,7.426,2.556,11.007      c3.479,5.351,6.689,10.892,9.61,16.604C542.136,293.947,544.92,296.522,547.942,298.765z" style="fill:#123D86;"/><path d="M572.698,308.599c-8.971-26.623-23.176-50.853-41.395-71.472      c-0.609,1.43-1.159,2.893-1.642,4.388c16.695,19.306,29.839,41.753,38.417,66.328      C569.6,308.165,571.142,308.417,572.698,308.599z" style="fill:#123D86;"/><path d="M352.989,226.712c5.472,1.387,11.142,2.269,16.96,2.594c1.665-0.057,3.335-0.094,5.014-0.094      c1.663,0,3.317,0.035,4.966,0.091c5.775-0.321,11.456-1.203,16.977-2.605c-7.165-1.057-14.489-1.619-21.943-1.619      C367.496,225.079,360.163,225.648,352.989,226.712z" style="fill:#123D86;"/><path d="M335.504,220.26c2.025,0.999,4.093,1.925,6.201,2.772c10.719-2.347,21.845-3.589,33.257-3.589      c11.404,0,22.521,1.239,33.23,3.58c2.112-0.846,4.193-1.764,6.233-2.766c-12.626-3.224-25.845-4.947-39.463-4.947      C361.349,215.31,348.13,217.033,335.504,220.26z" style="fill:#123D86;"/><path d="M610.372,297.987c-10.829-33.003-28.421-62.967-51.127-88.256      c-1.336,0.545-2.648,1.154-3.939,1.812c23.032,25.373,40.788,55.607,51.534,88.967      C608.059,299.715,609.236,298.872,610.372,297.987z" style="fill:#123D86;"/><path d="M323.906,213.409c1.473,1.026,2.975,2.013,4.511,2.951c14.77-4.344,30.388-6.687,46.546-6.687      c16.165,0,31.785,2.345,46.557,6.688c1.543-0.938,3.056-1.923,4.541-2.953c-16.129-5.108-33.295-7.868-51.098-7.868      C357.178,205.541,340.025,208.302,323.906,213.409z" style="fill:#123D86;"/><path d="M601.845,303.384c-10.578-33.443-28.351-63.708-51.51-88.967      c-1.174,0.769-2.311,1.582-3.409,2.436c23.039,25.018,40.693,55.058,51.125,88.269      C599.337,304.598,600.601,304.015,601.845,303.384z" style="fill:#123D86;"/><path d="M592.726,306.956c-10.189-32.529-27.476-61.942-50.05-86.418      c-0.994,0.965-1.939,1.975-2.848,3.014c22.016,23.933,38.89,52.655,48.876,84.403      C590.058,307.683,591.397,307.337,592.726,306.956z" style="fill:#123D86;"/><path d="M583.041,308.744c-9.673-30.292-25.785-57.733-46.732-80.699c-0.818,1.179-1.576,2.4-2.293,3.648      c19.933,22.087,35.327,48.328,44.729,77.26C580.181,308.952,581.613,308.868,583.041,308.744z" style="fill:#123D86;"/><path d="M561.419,305.961c-7.87-21.179-19.253-40.658-33.437-57.737      c-0.345,1.884-0.592,3.775-0.726,5.665c11.946,14.982,21.726,31.756,28.872,49.851      C557.847,304.577,559.614,305.317,561.419,305.961z" style="fill:#123D86;"/><path d="M461.406,116.193c-0.448-1.634-0.937-3.251-1.474-4.846      c-26.785-8.655-55.337-13.343-84.969-13.343c-29.603,0-58.129,4.684-84.89,13.333c-0.535,1.59-1.023,3.202-1.471,4.83      c27.15-9.092,56.186-14.03,86.361-14.03C405.164,102.137,434.228,107.087,461.406,116.193z" style="fill:#123D86;"/><path d="M463.708,127.349c-0.221-1.577-0.483-3.14-0.786-4.69c-27.557-9.634-57.154-14.886-87.959-14.886      c-30.776,0-60.347,5.247-87.882,14.874c-0.302,1.545-0.564,3.104-0.785,4.677c27.715-9.966,57.563-15.418,88.667-15.418      C406.092,111.907,435.966,117.369,463.708,127.349z" style="fill:#123D86;"/><path d="M464.564,138.063c-0.03-1.506-0.098-3.004-0.201-4.491c-27.863-10.353-57.979-16.029-89.4-16.029      c-31.397,0-61.486,5.669-89.323,16.01c-0.104,1.492-0.173,2.994-0.203,4.505c27.849-10.57,58.019-16.382,89.526-16.382      C406.498,121.676,436.694,127.488,464.564,138.063z" style="fill:#123D86;"/><path d="M374.962,131.52c31.478,0,61.568,6.025,89.21,16.943c0.139-1.453,0.235-2.912,0.303-4.374      c-27.78-10.814-57.961-16.777-89.513-16.777c-31.531,0-61.69,5.952-89.447,16.754c0.068,1.471,0.173,2.932,0.312,4.383      C313.448,137.537,343.514,131.52,374.962,131.52z" style="fill:#123D86;"/><path d="M374.962,141.289c30.997,0,60.595,6.087,87.691,17.093c0.29-1.382,0.555-2.77,0.78-4.167      c-27.362-10.992-57.217-17.059-88.471-17.059c-31.226,0-61.052,6.074-88.394,17.064c0.225,1.394,0.482,2.777,0.771,4.148      C314.413,147.373,343.986,141.289,374.962,141.289z" style="fill:#123D86;"/><path d="M457.367,104.645c-0.729-1.699-1.51-3.37-2.339-5.013c-25.423-7.407-52.285-11.398-80.065-11.398      c-27.754,0-54.588,3.986-79.983,11.383c-0.828,1.64-1.608,3.308-2.336,5.003c26.056-7.958,53.694-12.253,82.319-12.253      C403.62,92.368,431.285,96.676,457.367,104.645z" style="fill:#123D86;"/><path d="M301.118,190.472c0.806,1.173,1.638,2.325,2.497,3.456c22.103-8.747,46.172-13.562,71.347-13.562      c25.214,0,49.318,4.821,71.449,13.58c0.857-1.127,1.687-2.279,2.493-3.451c-22.869-9.191-47.822-14.262-73.941-14.262      C348.881,176.233,323.96,181.294,301.118,190.472z" style="fill:#123D86;"/><path d="M314.827,206.179c1.178,1.07,2.387,2.105,3.62,3.112c17.741-6.075,36.749-9.386,56.515-9.386      c19.795,0,38.824,3.316,56.581,9.396c1.232-1,2.433-2.04,3.612-3.107c-18.824-6.736-39.084-10.423-60.194-10.423      C353.874,195.772,333.634,199.454,314.827,206.179z" style="fill:#123D86;"/><path d="M374.962,190.135c22.756,0,44.552,4.147,64.697,11.695c1.029-1.07,2.034-2.165,3.011-3.288      c-21.033-8.093-43.861-12.541-67.708-12.541c-23.812,0-46.606,4.445-67.613,12.53c0.97,1.117,1.969,2.21,2.993,3.278      C330.469,194.272,352.241,190.135,374.962,190.135z" style="fill:#123D86;"/><path d="M441.851,80.298c-1.644-1.843-3.359-3.621-5.147-5.322c-19.949-4.105-40.594-6.28-61.741-6.28      c-21.114,0-41.729,2.167-61.649,6.264c-1.795,1.707-3.516,3.49-5.166,5.339c21.499-4.88,43.858-7.47,66.814-7.47      C397.941,72.83,420.327,75.415,441.851,80.298z" style="fill:#123D86;"/><path d="M451.126,92.692c-1.104-1.776-2.268-3.51-3.49-5.2c-23.263-5.885-47.606-9.026-72.673-9.026      c-25.039,0-49.356,3.14-72.594,9.021c-1.22,1.686-2.381,3.417-3.483,5.188c24.267-6.557,49.766-10.076,76.078-10.076      C401.306,82.599,426.834,86.127,451.126,92.692z" style="fill:#123D86;"/><path d="M653.464,443.344c-1.005-1.534-2.058-3.041-3.161-4.517      c-12.896,55.613-42.264,104.98-82.669,142.682c1.822,0.227,3.651,0.401,5.485,0.514      C611.879,544.927,640.267,497.094,653.464,443.344z" style="fill:#123D86;"/><path d="M571.773,403.258c-1.417,0.111-2.828,0.253-4.231,0.431      c-7.397,49.839-33.75,93.584-71.492,123.628c0.547,1.308,1.125,2.599,1.731,3.875      C537.028,500.283,564.378,454.939,571.773,403.258z" style="fill:#123D86;"/><path d="M610.453,408.818c-1.317-0.501-2.646-0.964-3.984-1.402      c-8.564,61.412-41.076,115.25-87.784,151.758c1.045,0.936,2.115,1.847,3.206,2.736      C568.865,524.928,601.605,470.678,610.453,408.818z" style="fill:#123D86;"/><path d="M591.4,403.891c-1.363-0.196-2.729-0.368-4.101-0.501      c-7.622,57.291-37.963,107.475-81.658,141.196c0.797,1.119,1.616,2.22,2.464,3.301      C552.681,513.502,583.636,462.316,591.4,403.891z" style="fill:#123D86;"/><path d="M561.712,404.623c-1.491,0.29-2.97,0.618-4.439,0.982      c-7.489,44.754-31.113,84.112-64.679,111.874c0.416,1.441,0.865,2.866,1.348,4.275      C529.395,492.981,554.271,451.668,561.712,404.623z" style="fill:#123D86;"/><path d="M600.998,405.815c-1.341-0.346-2.689-0.662-4.044-0.945      c-8.003,59.749-39.648,112.11-85.215,147.339c0.923,1.033,1.871,2.045,2.844,3.036      C560.719,519.451,592.781,466.382,600.998,405.815z" style="fill:#123D86;"/><path d="M581.663,403.021c-0.965-0.032-1.931-0.048-2.898-0.048c-0.424,0-0.845,0.015-1.268,0.021      c-7.431,53.984-36.017,101.301-77.11,133.304c0.677,1.216,1.381,2.414,2.113,3.594      C544.793,507.129,574.175,458.504,581.663,403.021z" style="fill:#123D86;"/><path d="M503.348,444.02c-1.407,2.61-2.889,5.173-4.448,7.685c-2.698,5.256-4.849,10.706-6.449,16.28      c9.012-11.361,16.409-24.052,21.853-37.729C510.238,434.439,506.562,439.041,503.348,444.02z" style="fill:#123D86;"/><path d="M523.163,422.279c-6.881,21.525-18.33,41.027-33.205,57.362c-0.33,2.257-0.572,4.525-0.727,6.802      c18.37-18.833,32.134-42.173,39.46-68.191C526.798,419.521,524.957,420.868,523.163,422.279z" style="fill:#123D86;"/><path d="M540.428,411.602c-1.631,0.77-3.237,1.587-4.818,2.453      c-7.585,31.219-24.047,58.996-46.566,80.496c0.042,1.788,0.151,3.577,0.301,5.366      C514.57,476.799,532.789,446.164,540.428,411.602z" style="fill:#123D86;"/><path d="M551.243,407.323c-1.513,0.488-3.014,1.009-4.497,1.576      c-7.617,38.681-28.006,72.818-56.582,97.836c0.253,1.566,0.541,3.13,0.878,4.691      C521.844,485.178,543.672,448.712,551.243,407.323z" style="fill:#123D86;"/><path d="M623.216,231.665c-3.873-6.715-9.168-12.35-15.374-16.624      c8.326,12.081,15.736,24.839,22.131,38.174C629.361,245.714,627.089,238.379,623.216,231.665z" style="fill:#123D86;"/><path d="M596.351,580.404c2.447-0.498,4.862-1.106,7.248-1.802      c27.441-30.787,48.76-67.132,62.061-107.107c-0.581-2.397-1.266-4.768-2.042-7.111      C650.044,508.121,626.781,547.63,596.351,580.404z" style="fill:#123D86;"/><path d="M660.287,455.811c-0.854-1.903-1.775-3.778-2.761-5.621      c-13.505,50.696-40.315,96.013-76.468,131.966c2.076-0.058,4.142-0.185,6.194-0.386      C621.191,546.954,646.659,503.854,660.287,455.811z" style="fill:#123D86;"/><path d="M628.374,270.764c0.447-1.672,0.808-3.354,1.085-5.04c-8.702-20.187-19.738-39.137-32.767-56.516      c-2.192-0.824-4.445-1.498-6.744-2.02c15.484,19.794,28.296,41.768,37.896,65.382      C628.026,271.971,628.211,271.372,628.374,270.764z" style="fill:#123D86;"/><path d="M624.814,280.262c-10.318-27.13-24.924-52.158-43.002-74.249      c-1.068-0.067-2.141-0.104-3.219-0.104c-0.744,0-1.486,0.041-2.228,0.074c19.56,23.265,35.171,49.944,45.794,79.011      C623.123,283.468,624.013,281.892,624.814,280.262z" style="fill:#123D86;"/><path d="M628.752,418.311c-1.241-0.837-2.508-1.647-3.803-2.429      c-10.135,62.152-42.962,116.777-89.7,155.06c1.307,0.724,2.627,1.423,3.965,2.08      C585.556,534.542,618.225,480.162,628.752,418.311z" style="fill:#123D86;"/><path d="M619.705,412.956c-1.282-0.661-2.574-1.298-3.883-1.896      c-9.283,62.244-42.204,116.843-89.318,154.383c1.169,0.832,2.359,1.641,3.573,2.421      C577.127,529.971,610.072,475.268,619.705,412.956z" style="fill:#123D86;"/><path d="M374.962,151.059c30.132,0,58.877,6.003,85.14,16.835c0.432-1.316,0.833-2.642,1.204-3.977      c-26.65-10.935-55.799-16.992-86.344-16.992c-30.515,0-59.64,6.049-86.269,16.977c0.372,1.336,0.777,2.659,1.209,3.969      C316.143,157.049,344.864,151.059,374.962,151.059z" style="fill:#123D86;"/><path d="M637.463,424.999c-1.185-1.031-2.402-2.035-3.65-3.01      c-11.075,61.121-43.336,114.949-88.89,153.588c1.462,0.595,2.937,1.152,4.426,1.669      C594.138,538.592,625.983,485.359,637.463,424.999z" style="fill:#123D86;"/><path d="M645.77,433.246c-1.11-1.259-2.262-2.487-3.449-3.688      c-12.028,59.005-43.158,111.131-86.636,149.632c1.633,0.435,3.279,0.82,4.934,1.162      C602.918,542.093,633.363,490.982,645.77,433.246z" style="fill:#123D86;"/><path d="M168.197,206.012c-18.084,22.093-32.702,47.123-43.025,74.259      c0.803,1.631,1.697,3.207,2.663,4.735c10.618-29.07,26.218-55.755,45.773-79.022c-0.74-0.033-1.479-0.074-2.22-0.074      C170.32,205.909,169.256,205.946,168.197,206.012z" style="fill:#123D86;"/><path d="M125.049,415.873c-1.293,0.78-2.561,1.589-3.805,2.427      c10.52,61.863,43.177,116.253,89.514,154.735c1.345-0.659,2.671-1.361,3.984-2.089      C168.011,532.662,135.182,478.031,125.049,415.873z" style="fill:#123D86;"/><path d="M134.175,411.039c-1.31,0.596-2.603,1.233-3.886,1.893      c9.623,62.329,42.557,117.046,89.605,154.945c1.221-0.786,2.416-1.599,3.586-2.435      C176.374,527.898,143.453,473.291,134.175,411.039z" style="fill:#123D86;"/><path d="M153.045,404.863c-1.355,0.283-2.703,0.598-4.044,0.944      c8.214,60.567,40.273,113.637,86.395,149.432c0.972-0.994,1.916-2.009,2.835-3.042      C192.683,516.967,161.045,464.608,153.045,404.863z" style="fill:#123D86;"/><path d="M246.354,443.568c-3.174-4.843-6.787-9.324-10.771-13.406      c5.461,13.747,12.895,26.499,21.958,37.908c-1.539-5.423-3.611-10.765-6.239-15.956      C249.559,449.328,247.911,446.476,246.354,443.568z" style="fill:#123D86;"/><path d="M143.527,407.404c-1.337,0.437-2.666,0.898-3.983,1.397      c8.845,61.868,41.586,116.125,88.552,153.11c1.086-0.888,2.148-1.797,3.183-2.728      C184.581,522.673,152.084,468.827,143.527,407.404z" style="fill:#123D86;"/><path d="M131.854,290.507c1.006,1.198,2.071,2.348,3.187,3.452      c10.864-32.086,27.986-61.298,49.915-86.192c-1.516-0.419-3.051-0.754-4.598-1.032      C159.266,231.106,142.671,259.459,131.854,290.507z" style="fill:#123D86;"/><path d="M162.7,403.387c-1.372,0.133-2.739,0.303-4.102,0.499      c7.757,58.423,38.686,109.606,83.238,143.992c0.852-1.089,1.678-2.194,2.475-3.317      C200.646,510.84,170.319,460.666,162.7,403.387z" style="fill:#123D86;"/><path d="M139.621,297.984c1.137,0.885,2.313,1.727,3.531,2.521c10.746-33.35,28.501-63.576,51.525-88.944      c-1.298-0.664-2.615-1.278-3.958-1.827C168.024,235.022,150.445,264.986,139.621,297.984z" style="fill:#123D86;"/><path d="M221.23,418.219c7.329,26.033,21.109,49.387,39.494,68.228c-0.151-2.263-0.387-4.526-0.712-6.784      c-14.9-16.35-26.369-35.875-33.257-57.426C224.962,420.829,223.122,419.485,221.23,418.219z" style="fill:#123D86;"/><path d="M126.911,231.36c-0.114,0.196-0.226,0.393-0.339,0.59c-3.792,6.664-6.013,13.936-6.598,21.373      c6.412-13.384,13.844-26.188,22.2-38.311C136.04,219.224,130.79,224.765,126.911,231.36z" style="fill:#123D86;"/><path d="M120.518,265.782c0.277,1.663,0.636,3.321,1.078,4.97c0.166,0.619,0.354,1.228,0.541,1.838      c9.599-23.622,22.415-45.603,37.902-65.402c-2.293,0.52-4.542,1.193-6.73,2.015      C140.267,226.599,129.225,245.572,120.518,265.782z" style="fill:#123D86;"/><path d="M148.142,303.378c1.244,0.63,2.507,1.214,3.793,1.74c10.427-33.204,28.078-63.234,51.106-88.247      c-1.093-0.85-2.224-1.659-3.393-2.426C176.498,239.696,158.72,269.947,148.142,303.378z" style="fill:#123D86;"/><path d="M172.501,402.995c-0.432-0.006-0.862-0.022-1.295-0.022c-0.957,0-1.914,0.017-2.87,0.048      c7.485,55.461,36.845,104.07,79.099,136.833c0.729-1.178,1.429-2.371,2.101-3.579      C208.477,504.272,179.924,456.966,172.501,402.995z" style="fill:#123D86;"/><path d="M192.652,405.595c-1.444-0.357-2.898-0.68-4.363-0.965      c7.441,47.033,32.305,88.335,67.732,117.106c0.483-1.407,0.931-2.825,1.344-4.253      C223.789,489.718,200.146,450.355,192.652,405.595z" style="fill:#123D86;"/><path d="M182.459,403.693c-1.404-0.178-2.815-0.32-4.232-0.432      c7.393,51.664,34.726,96.995,73.942,127.903c0.608-1.279,1.186-2.571,1.733-3.875      C216.191,497.247,189.855,453.516,182.459,403.693z" style="fill:#123D86;"/><path d="M214.314,414.032c-1.58-0.864-3.187-1.68-4.817-2.448c7.643,34.568,25.876,65.21,51.111,88.332      c0.15-1.785,0.252-3.576,0.294-5.372C238.376,473.04,221.901,445.257,214.314,414.032z" style="fill:#123D86;"/><path d="M203.178,408.884c-1.483-0.566-2.985-1.086-4.499-1.574c7.57,41.4,29.403,77.873,60.214,104.125      c0.337-1.562,0.63-3.134,0.884-4.712C231.198,481.702,210.798,447.565,203.178,408.884z" style="fill:#123D86;"/><path d="M177.311,308.598c1.551-0.182,3.086-0.433,4.603-0.753c8.574-24.57,21.716-47.007,38.402-66.309      c-0.482-1.49-1.032-2.947-1.639-4.372C200.473,257.775,186.278,281.99,177.311,308.598z" style="fill:#123D86;"/><path d="M424.957,597.536c-0.341-1.346-0.743-2.668-1.188-3.97c-15.717,3.509-32.046,5.374-48.807,5.374      c-16.734,0-33.039-1.862-48.734-5.364c-0.444,1.302-0.846,2.623-1.186,3.97c16.073,3.608,32.776,5.527,49.921,5.527      C392.134,603.074,408.861,601.151,424.957,597.536z" style="fill:#123D86;"/><path d="M421.629,588.268c-0.611-1.295-1.279-2.557-1.993-3.791c-14.414,3.071-29.357,4.694-44.674,4.694      c-15.291,0-30.211-1.62-44.604-4.684c-0.714,1.235-1.382,2.499-1.994,3.796c15.019,3.282,30.608,5.021,46.598,5.021      C390.976,593.305,406.588,591.559,421.629,588.268z" style="fill:#123D86;"/><path d="M374.962,579.402c-13.086,0-25.881-1.256-38.288-3.62c-1.046,1.163-2.043,2.371-2.981,3.625      c13.346,2.692,27.142,4.128,41.27,4.128c14.153,0,27.972-1.439,41.34-4.137c-0.939-1.256-1.938-2.465-2.986-3.629      C400.888,578.142,388.071,579.402,374.962,579.402z" style="fill:#123D86;"/><path d="M352.979,656.704c6.682,3.172,14.146,4.954,22.021,4.954c7.88,0,15.349-1.784,22.034-4.96      c-7.285,0.566-14.645,0.858-22.072,0.858C367.565,657.556,360.235,657.266,352.979,656.704z" style="fill:#123D86;"/><path d="M337.26,645.161c1.603,1.726,3.318,3.346,5.141,4.84c10.683,1.258,21.546,1.92,32.561,1.92      c11.045,0,21.936-0.664,32.647-1.927c1.824-1.495,3.539-3.116,5.143-4.844c-12.355,1.725-24.967,2.638-37.79,2.638      C362.169,647.787,349.587,646.878,337.26,645.161z" style="fill:#123D86;"/><path d="M329.374,634.029c0.845,1.607,1.766,3.167,2.77,4.668c13.946,2.262,28.245,3.454,42.818,3.454      c14.603,0,28.93-1.195,42.901-3.464c1.004-1.503,1.926-3.063,2.77-4.671c-14.84,2.613-30.095,4.002-45.671,4.002      C359.414,638.018,344.187,636.633,329.374,634.029z" style="fill:#123D86;"/><path d="M374.962,170.597c27.237,0,53.239,5.371,77.028,15.082c0.212-0.354,0.431-0.703,0.637-1.061      c0.49-0.846,0.966-1.7,1.427-2.562c-24.404-10.036-51.107-15.593-79.092-15.593c-27.943,0-54.612,5.543-78.987,15.563      c0.655,1.222,1.338,2.427,2.047,3.615C321.782,175.951,347.756,170.597,374.962,170.597z" style="fill:#123D86;"/><path d="M323.972,603.085c-0.188,1.365-0.33,2.745-0.408,4.142c16.558,3.667,33.754,5.616,51.399,5.616      c17.672,0,34.893-1.953,51.473-5.627c-0.079-1.399-0.221-2.78-0.409-4.147c-16.443,3.682-33.528,5.641-51.064,5.641      C357.451,608.71,340.391,606.756,323.972,603.085z" style="fill:#123D86;"/><path d="M408.348,570.948c-1.453-1.236-2.967-2.401-4.552-3.472c-9.412,1.407-19.035,2.158-28.834,2.158      c-9.775,0-19.377-0.748-28.768-2.15c-1.585,1.071-3.098,2.237-4.551,3.473c10.838,1.84,21.967,2.81,33.319,2.81      C386.338,573.766,397.49,572.793,408.348,570.948z" style="fill:#123D86;"/><path d="M157.286,306.96c1.329,0.38,2.668,0.726,4.022,0.998c9.982-31.734,26.845-60.444,48.845-84.371      c-0.909-1.04-1.854-2.049-2.847-3.015C184.747,245.042,167.472,274.444,157.286,306.96z" style="fill:#123D86;"/><path d="M374.962,559.864c-3.25,0-6.478-0.096-9.687-0.264c-3.716,0.712-7.291,1.82-10.678,3.285      c6.692,0.725,13.484,1.112,20.365,1.112c6.903,0,13.716-0.389,20.429-1.118c-3.389-1.465-6.965-2.571-10.682-3.282      C381.481,559.767,378.233,559.864,374.962,559.864z" style="fill:#123D86;"/><path d="M188.594,305.956c1.8-0.642,3.561-1.38,5.274-2.215c7.145-18.079,16.924-34.835,28.861-49.806      c-0.134-1.9-0.384-3.8-0.732-5.694C207.827,265.314,196.46,284.788,188.594,305.956z" style="fill:#123D86;"/><path d="M202.077,298.751c2.969-2.205,5.709-4.731,8.159-7.548c2.968-5.815,6.234-11.452,9.779-16.892      c1.225-3.518,2.054-7.139,2.486-10.809C214.489,274.423,207.623,286.23,202.077,298.751z" style="fill:#123D86;"/><path d="M166.964,308.745c1.43,0.124,2.863,0.208,4.301,0.21c9.399-28.918,24.779-55.147,44.696-77.227      c-0.72-1.253-1.481-2.479-2.302-3.662C192.727,251.025,176.631,278.46,166.964,308.745z" style="fill:#123D86;"/><path d="M374.962,160.828c28.88,0,56.431,5.764,81.595,16.165c0.57-1.252,1.103-2.519,1.614-3.796      c-25.662-10.618-53.759-16.503-83.209-16.503c-29.423,0-57.493,5.87-83.127,16.47c0.515,1.282,1.058,2.551,1.63,3.803      C318.602,166.579,346.122,160.828,374.962,160.828z" style="fill:#123D86;"/><path d="M116.179,421.958c-1.245,0.969-2.464,1.964-3.651,2.993      c11.472,60.382,43.321,113.633,88.115,152.297c1.482-0.514,2.95-1.068,4.405-1.66      C159.495,536.942,127.243,483.098,116.179,421.958z" style="fill:#123D86;"/><path d="M99.678,438.746c-1.104,1.471-2.154,2.981-3.165,4.52      c13.181,53.782,41.565,101.645,80.331,138.759c1.844-0.113,3.682-0.287,5.513-0.515      C141.94,543.791,112.564,494.393,99.678,438.746z" style="fill:#123D86;"/><path d="M92.447,450.093c-0.983,1.836-1.905,3.708-2.762,5.618      c13.621,48.083,39.097,91.219,73.053,126.058c2.052,0.201,4.118,0.328,6.194,0.387      C132.763,546.18,105.943,500.828,92.447,450.093z" style="fill:#123D86;"/><path d="M84.799,469.399c-0.179,0.67-0.324,1.343-0.487,2.014      c13.298,40.006,34.625,76.379,62.079,107.186c2.374,0.694,4.779,1.299,7.214,1.795c-30.437-32.796-53.698-72.336-67.259-116.106      C85.788,465.972,85.262,467.671,84.799,469.399z" style="fill:#123D86;"/><path d="M107.667,429.515c-1.186,1.194-2.335,2.421-3.448,3.678      c12.399,57.758,42.849,108.89,85.153,147.161c1.647-0.34,3.285-0.723,4.91-1.156      C150.805,540.687,119.682,488.542,107.667,429.515z" style="fill:#123D86;"/><path d="M325.193,623.317c0.402,1.517,0.866,3.01,1.4,4.469c15.673,2.995,31.835,4.595,48.37,4.595      c16.556,0,32.748-1.581,48.442-4.584c0.537-1.467,1.003-2.966,1.407-4.491c-16.122,3.234-32.788,4.942-49.848,4.942      C357.93,628.248,341.291,626.544,325.193,623.317z" style="fill:#123D86;"/><path d="M374.962,618.479c-17.63,0-34.825-1.895-51.402-5.474c0.081,1.458,0.229,2.899,0.429,4.323      c16.455,3.458,33.504,5.285,50.973,5.285c17.495,0,34.57-1.832,51.051-5.3c0.199-1.423,0.347-2.862,0.427-4.319      C409.841,616.58,392.62,618.479,374.962,618.479z" style="fill:#123D86;"/></g><g><path d="M230.03,239.12c-0.002,0.003-0.005,0.005-0.007,0.008c0.095,0.306,0.207,0.604,0.297,0.912      C230.22,239.73,230.13,239.43,230.03,239.12z" style="fill:#F9EB00;"/><path d="M215.7,214.83c0.482,0.495,0.928,1.019,1.39,1.53c0.003-0.003,0.007-0.007,0.01-0.01      C216.64,215.84,216.17,215.33,215.7,214.83z" style="fill:#F9EB00;"/><polygon points="206.65,207.11 206.65,207.11 206.657,207.115     " style="fill:#F9EB00;"/><path d="M131.71,304.44c0-0.001,0.001-0.003,0.001-0.005c-0.055-0.046-0.111-0.092-0.166-0.138      C131.601,304.344,131.654,304.393,131.71,304.44z" style="fill:#F9EB00;"/><path d="M130.093,303.037c-0.259-0.233-0.512-0.472-0.767-0.709      C129.581,302.565,129.833,302.805,130.093,303.037z" style="fill:#F9EB00;"/><path d="M131.545,304.297c-0.49-0.413-0.975-0.832-1.453-1.26      C130.569,303.465,131.055,303.883,131.545,304.297z" style="fill:#F9EB00;"/><path d="M138.33,309.29c-0.608-0.384-1.196-0.793-1.788-1.196c-0.001,0.002-0.001,0.004-0.002,0.006      C137.13,308.5,137.73,308.9,138.33,309.29z" style="fill:#F9EB00;"/><path d="M167.98,196.01c0.442-0.027,0.886-0.044,1.33-0.06c0,0,0,0,0,0      C168.86,195.96,168.42,195.98,167.98,196.01z" style="fill:#F9EB00;"/><path d="M114.51,280.9c0.013,0.032,0.028,0.063,0.041,0.095c-0.013-0.032-0.028-0.064-0.041-0.096      C114.51,280.898,114.51,280.899,114.51,280.9z" style="fill:#F9EB00;"/><path d="M110.602,247.632c0.004-0.021,0.007-0.043,0.01-0.064      C110.609,247.589,110.605,247.611,110.602,247.632z" style="fill:#F9EB00;"/><path d="M110.612,247.568c0.198-1.224,0.43-2.443,0.698-3.658      C111.035,245.122,110.811,246.343,110.612,247.568z" style="fill:#F9EB00;"/></g><path d="M171.326,308.956c2.013,0,4.008-0.125,5.982-0.357c8.969-26.612,23.163-50.823,41.369-71.433     c-0.8-1.876-1.711-3.691-2.718-5.444c-19.917,22.083-35.298,48.314-44.693,77.232     C171.286,308.954,171.306,308.956,171.326,308.956z" style="fill:#F9EB00;"/><g><path d="M222.731,253.947c-11.939,14.971-21.723,31.72-28.867,49.796c2.88-1.402,5.624-3.072,8.198-4.982      c5.55-12.527,12.423-24.34,20.439-35.265C222.873,260.338,222.956,257.145,222.731,253.947z" style="fill:#F9EB00;"/><path d="M210.275,291.157c2.121-2.444,4.028-5.102,5.675-7.957c1.64-2.844,2.984-5.802,4.044-8.836      C216.472,279.773,213.229,285.378,210.275,291.157z" style="fill:#F9EB00;"/><path d="M142.193,214.999c-8.365,12.13-15.802,24.943-22.22,38.337c-0.323,4.116-0.148,8.282,0.54,12.422      c8.707-20.199,19.755-39.164,32.788-56.553C149.375,210.681,145.645,212.631,142.193,214.999z" style="fill:#F9EB00;"/><path d="M126.353,232.352c0.202-0.352,0.396-0.71,0.6-1.061c-0.076,0.129-0.157,0.256-0.232,0.386      C126.592,231.9,126.477,232.128,126.353,232.352z" style="fill:#F9EB00;"/><path d="M220.316,241.536c-16.685,19.301-29.837,41.736-38.41,66.31c2.281-0.481,4.519-1.116,6.699-1.895      c7.865-21.166,19.227-40.637,33.394-57.708c-0.254-1.381-0.55-2.76-0.918-4.132      C220.847,243.244,220.591,242.386,220.316,241.536z" style="fill:#F9EB00;"/><path d="M194.694,211.571c-23.024,25.368-40.775,55.597-51.526,88.945      c0.797,0.519,1.607,1.024,2.437,1.502c0.838,0.485,1.693,0.932,2.553,1.368c10.577-33.431,28.354-63.675,51.506-88.931      c-0.848-0.557-1.71-1.099-2.596-1.61C196.289,212.394,195.493,211.98,194.694,211.571z" style="fill:#F9EB00;"/><path d="M135.035,293.952c1.447,1.433,2.983,2.785,4.606,4.047      c10.822-33.006,28.401-62.967,51.102-88.256c-1.893-0.775-3.827-1.436-5.792-1.979      C163.025,232.659,145.9,261.87,135.035,293.952z" style="fill:#F9EB00;"/><path d="M127.83,284.997c1.217,1.925,2.56,3.765,4.022,5.507c10.814-31.048,27.41-59.404,48.504-83.77      c-2.227-0.4-4.478-0.65-6.743-0.75C154.061,229.25,138.451,255.927,127.83,284.997z" style="fill:#F9EB00;"/><path d="M122.138,272.592c0.816,2.653,1.823,5.217,3.028,7.665c10.328-27.138,24.97-52.152,43.058-74.246      c-2.769,0.172-5.499,0.569-8.17,1.174C144.559,226.984,131.742,248.97,122.138,272.592z" style="fill:#F9EB00;"/><path d="M161.327,307.961c1.868,0.374,3.759,0.622,5.658,0.785c9.665-30.279,25.756-57.706,46.688-80.664      c-1.081-1.56-2.258-3.051-3.507-4.481C188.166,247.529,171.31,276.233,161.327,307.961z" style="fill:#F9EB00;"/><path d="M151.956,305.125c1.751,0.716,3.539,1.323,5.351,1.841      c10.185-32.514,27.456-61.908,50.013-86.379c-1.345-1.308-2.768-2.541-4.261-3.703      C180.026,241.899,162.378,271.917,151.956,305.125z" style="fill:#F9EB00;"/></g><g><path d="M104.242,433.168c-1.591,1.795-3.113,3.646-4.552,5.562      c12.882,55.651,42.246,105.052,82.666,142.781c2.357-0.293,4.702-0.679,7.028-1.159      C147.071,542.078,116.639,490.936,104.242,433.168z" style="fill:#F9EB00;"/><path d="M112.55,424.933c-1.686,1.461-3.301,2.989-4.866,4.565      c12.015,59.03,43.117,111.181,86.59,149.703c2.143-0.57,4.266-1.222,6.364-1.95C155.844,538.585,124.018,485.315,112.55,424.933      z" style="fill:#F9EB00;"/><path d="M219.891,567.879c-47.047-37.903-79.968-92.62-89.591-154.952      c-1.274,0.655-2.539,1.332-3.784,2.049c-0.494,0.286-0.968,0.595-1.455,0.889c10.135,62.159,42.947,116.794,89.674,155.085      c0.474-0.263,0.952-0.519,1.422-0.791C217.427,569.427,218.671,568.665,219.891,567.879z" style="fill:#F9EB00;"/><path d="M121.254,418.293c-1.733,1.166-3.424,2.38-5.059,3.653      c11.062,61.139,43.3,114.993,88.847,153.644c1.93-0.785,3.836-1.634,5.712-2.554      C164.418,534.557,131.772,480.159,121.254,418.293z" style="fill:#F9EB00;"/><path d="M226.758,422.238c6.888,21.548,18.359,41.061,33.252,57.407c-0.56-3.88-1.38-7.744-2.466-11.569      c-9.07-11.415-16.516-24.175-21.978-37.933C232.799,427.31,229.856,424.671,226.758,422.238z" style="fill:#F9EB00;"/><path d="M176.85,582.025c-38.77-37.11-67.155-84.979-80.337-138.76c-1.452,2.209-2.81,4.483-4.063,6.822      c13.499,50.739,40.316,96.092,76.482,132.069c0.833,0.023,1.667,0.042,2.503,0.042      C173.243,582.198,175.049,582.136,176.85,582.025z" style="fill:#F9EB00;"/><path d="M246.371,443.594c1.533,2.865,3.165,5.668,4.88,8.415c-0.723-1.424-1.486-2.837-2.293-4.237      C248.135,446.349,247.266,444.96,246.371,443.594z" style="fill:#F9EB00;"/><path d="M89.692,455.697c-1.253,2.791-2.372,5.655-3.345,8.591      c13.562,43.771,36.822,83.314,67.259,116.107c3.002,0.612,6.046,1.072,9.121,1.374      C128.774,546.924,103.309,503.783,89.692,455.697z" style="fill:#F9EB00;"/><path d="M178.243,403.262c-1.898-0.15-3.807-0.239-5.724-0.267      c7.426,53.967,35.955,101.279,77.016,133.281c0.934-1.677,1.811-3.381,2.633-5.11      C212.949,500.263,185.636,454.921,178.243,403.262z" style="fill:#F9EB00;"/><path d="M139.556,408.797c-1.811,0.687-3.601,1.432-5.368,2.236      c9.28,62.258,42.188,116.871,89.292,154.41c1.585-1.132,3.122-2.31,4.614-3.529      C181.134,524.932,148.399,470.665,139.556,408.797z" style="fill:#F9EB00;"/><path d="M209.502,411.586c-2.072-0.977-4.178-1.883-6.322-2.701      c7.624,38.685,28.021,72.825,56.595,97.844c0.364-2.26,0.641-4.536,0.833-6.822      C235.374,476.787,217.144,446.147,209.502,411.586z" style="fill:#F9EB00;"/><path d="M188.305,404.633c-1.927-0.375-3.87-0.688-5.827-0.937c7.399,49.818,33.722,93.55,71.427,123.587      c0.766-1.828,1.474-3.678,2.117-5.55C220.595,492.964,195.742,451.659,188.305,404.633z" style="fill:#F9EB00;"/><path d="M260.724,486.447c-18.378-18.842-32.148-42.192-39.479-68.219      c-2.246-1.504-4.561-2.901-6.932-4.197c7.59,31.226,24.062,59.01,46.589,80.519      C260.966,491.854,260.904,489.151,260.724,486.447z" style="fill:#F9EB00;"/><path d="M198.693,407.314c-1.983-0.639-3.989-1.212-6.019-1.714      c7.494,44.759,31.117,84.123,64.69,111.883c0.578-1.996,1.088-4.011,1.527-6.042      C228.086,485.185,206.262,448.711,198.693,407.314z" style="fill:#F9EB00;"/><path d="M168.353,403.021c-1.887,0.061-3.77,0.185-5.646,0.366      c7.624,57.28,37.935,107.459,81.604,141.176c1.093-1.539,2.133-3.108,3.123-4.706      C205.179,507.092,175.837,458.477,168.353,403.021z" style="fill:#F9EB00;"/><path d="M235.392,555.242c-46.117-35.797-78.169-88.873-86.378-149.439      c-1.84,0.474-3.666,1.007-5.474,1.598c8.56,61.419,41.041,115.273,87.739,151.784      C232.697,557.909,234.069,556.595,235.392,555.242z" style="fill:#F9EB00;"/><path d="M158.607,403.885c-1.864,0.268-3.718,0.593-5.56,0.977      c8.001,59.743,39.634,112.102,85.182,147.337c1.251-1.406,2.454-2.846,3.606-4.319      C197.286,513.498,166.362,462.313,158.607,403.885z" style="fill:#F9EB00;"/></g><g><path d="M426.024,603.054c-0.26-1.879-0.614-3.728-1.072-5.537c-16.093,3.613-32.82,5.553-49.992,5.553      c-17.141,0-33.844-1.913-49.919-5.521c-0.457,1.81-0.81,3.66-1.069,5.54c16.422,3.67,33.478,5.621,50.988,5.621      C392.502,608.71,409.583,606.734,426.024,603.054z" style="fill:#F9EB00;"/><path d="M336.674,575.781c12.405,2.364,25.198,3.618,38.285,3.618c13.11,0,25.933-1.253,38.362-3.623      c-1.548-1.721-3.215-3.333-4.98-4.834c-10.856,1.846-22.007,2.827-33.382,2.827c-11.35,0-22.478-0.975-33.316-2.814      C339.883,572.454,338.22,574.063,336.674,575.781z" style="fill:#F9EB00;"/><path d="M374.96,598.94c16.759,0,33.084-1.889,48.801-5.395c-0.619-1.811-1.331-3.58-2.141-5.295      c-15.043,3.288-30.65,5.049-46.66,5.049c-15.991,0-31.578-1.739-46.594-5.019c-0.809,1.716-1.52,3.485-2.139,5.298      C341.927,597.079,358.23,598.94,374.96,598.94z" style="fill:#F9EB00;"/><path d="M384.654,559.587c-3.129-0.595-6.354-0.919-9.654-0.919c-3.321,0-6.565,0.327-9.712,0.93      c3.204,0.167,6.427,0.262,9.672,0.262C378.214,559.86,381.443,559.756,384.654,559.587z" style="fill:#F9EB00;"/><path d="M374.96,569.63c9.801,0,19.42-0.749,28.828-2.16c-2.633-1.779-5.443-3.314-8.391-4.588      c-6.714,0.733-13.531,1.118-20.437,1.118c-6.88,0-13.672-0.387-20.366-1.114c-2.951,1.276-5.763,2.814-8.398,4.595      C355.587,568.883,365.185,569.63,374.96,569.63z" style="fill:#F9EB00;"/><path d="M419.626,584.461c-1.013-1.751-2.115-3.444-3.321-5.057c-13.369,2.7-27.189,4.135-41.346,4.135      c-14.126,0-27.92-1.441-41.267-4.133c-1.211,1.621-2.318,3.322-3.335,5.082c14.395,3.062,29.312,4.681,44.602,4.681      C390.278,589.17,405.215,587.53,419.626,584.461z" style="fill:#F9EB00;"/><path d="M412.759,645.141c1.872-2.018,3.587-4.183,5.12-6.48c-13.98,2.271-28.307,3.489-42.92,3.489      c-14.574,0-28.87-1.188-42.814-3.45c1.531,2.29,3.244,4.447,5.112,6.458c12.328,1.719,24.912,2.631,37.702,2.631      C387.79,647.79,400.402,646.868,412.759,645.141z" style="fill:#F9EB00;"/><path d="M426.441,612.978c0.051-0.942,0.082-1.889,0.082-2.844c0-0.986-0.034-1.963-0.089-2.935      c-16.581,3.673-33.798,5.641-51.474,5.641c-17.646,0-34.838-1.945-51.396-5.614c-0.054,0.963-0.087,1.932-0.087,2.909      c0,0.964,0.032,1.92,0.084,2.87c16.573,3.579,33.768,5.475,51.399,5.475C392.624,618.48,409.839,616.566,426.441,612.978z" style="fill:#F9EB00;"/><path d="M397.06,656.686c3.797-1.807,7.339-4.062,10.558-6.701c-10.712,1.266-21.608,1.934-32.658,1.934      c-11.015,0-21.876-0.66-32.557-1.918c3.224,2.641,6.774,4.897,10.578,6.703c7.254,0.563,14.584,0.855,21.979,0.855      C382.398,657.56,389.767,657.258,397.06,656.686z" style="fill:#F9EB00;"/><path d="M424.817,623.282c0.516-1.953,0.913-3.952,1.198-5.987c-16.484,3.468-33.557,5.315-51.055,5.315      c-17.466,0-34.513-1.827-50.971-5.286c0.286,2.039,0.687,4.041,1.205,5.996c16.097,3.228,32.738,4.93,49.766,4.93      C392.024,628.25,408.692,626.517,424.817,623.282z" style="fill:#F9EB00;"/><path d="M420.642,633.997c1.052-2.003,1.985-4.079,2.77-6.226c-15.698,3.002-31.886,4.608-48.452,4.608      c-16.535,0-32.697-1.6-48.366-4.591c0.788,2.153,1.725,4.233,2.781,6.242c14.811,2.605,30.037,3.99,45.586,3.99      C390.542,638.02,405.799,636.615,420.642,633.997z" style="fill:#F9EB00;"/></g><g><path d="M523.156,422.285c-3.127,2.461-6.095,5.133-8.882,8.002      c-5.439,13.66-12.825,26.333-21.819,37.683c-1.1,3.831-1.92,7.724-2.494,11.651      C504.828,463.291,516.276,443.804,523.156,422.285z" style="fill:#F9EB00;"/><path d="M557.26,405.608c-2.028,0.502-4.034,1.075-6.016,1.714      c-7.575,41.389-29.398,77.858-60.201,104.107c0.314,1.453,0.664,2.903,1.052,4.349c0.153,0.572,0.336,1.132,0.5,1.699      C526.158,489.718,549.769,450.359,557.26,405.608z" style="fill:#F9EB00;"/><path d="M535.606,414.057c-2.373,1.3-4.688,2.701-6.935,4.208c-7.326,26.006-21.077,49.342-39.439,68.171      c-0.183,2.698-0.252,5.406-0.187,8.12C511.559,473.056,528.019,445.275,535.606,414.057z" style="fill:#F9EB00;"/><path d="M503.337,444.039c-0.79,1.224-1.561,2.463-2.294,3.732c-0.716,1.241-1.395,2.495-2.048,3.759      C500.512,449.079,501.964,446.584,503.337,444.039z" style="fill:#F9EB00;"/><path d="M546.74,408.901c-2.148,0.821-4.259,1.73-6.335,2.711c-7.641,34.553-25.848,65.184-51.061,88.298      c0.192,2.281,0.454,4.561,0.822,6.837C518.739,481.727,539.124,447.58,546.74,408.901z" style="fill:#F9EB00;"/><path d="M567.514,403.692c-1.96,0.249-3.906,0.561-5.835,0.937c-7.44,47.04-32.295,88.357-67.735,117.126      c0.645,1.882,1.344,3.738,2.105,5.56C533.787,497.275,560.114,453.53,567.514,403.692z" style="fill:#F9EB00;"/><path d="M653.461,443.341c-13.192,53.749-41.58,101.581-80.341,138.683      c1.811,0.112,3.627,0.174,5.445,0.174c0.834,0,1.665-0.018,2.495-0.042c36.154-35.954,62.963-81.264,76.467-131.963      C656.277,447.856,654.921,445.569,653.461,443.341z" style="fill:#F9EB00;"/><path d="M514.583,555.246c1.326,1.35,2.69,2.664,4.105,3.931c46.703-36.509,79.213-90.352,87.777-151.762      c-1.81-0.592-3.638-1.127-5.48-1.603C592.768,466.375,560.719,519.456,514.583,555.246z" style="fill:#F9EB00;"/><path d="M615.821,411.06c-1.767-0.806-3.557-1.554-5.368-2.243      c-8.85,61.858-41.586,116.112-88.561,153.093c1.498,1.219,3.027,2.406,4.611,3.534      C573.616,527.901,606.539,473.305,615.821,411.06z" style="fill:#F9EB00;"/><path d="M650.299,438.824c-1.433-1.917-2.947-3.783-4.542-5.591      c-12.41,57.737-42.842,108.852-85.148,147.117c2.323,0.48,4.664,0.866,7.019,1.159      C608.034,543.805,637.405,494.437,650.299,438.824z" style="fill:#F9EB00;"/><path d="M633.799,421.978c-1.633-1.275-3.318-2.502-5.058-3.675      c-10.527,61.847-43.178,116.235-89.521,154.721c1.876,0.921,3.782,1.77,5.712,2.555      C590.481,536.934,622.724,483.098,633.799,421.978z" style="fill:#F9EB00;"/><path d="M642.3,429.537c-1.553-1.57-3.172-3.09-4.855-4.554c-11.473,60.363-43.3,113.607-88.092,152.264      c2.09,0.726,4.204,1.376,6.339,1.945C599.172,540.686,630.278,488.544,642.3,429.537z" style="fill:#F9EB00;"/><path d="M660.281,455.799c-13.63,48.046-39.085,91.149-73.018,125.97      c3.066-0.301,6.101-0.757,9.093-1.366c30.426-32.777,53.687-72.286,67.259-116.023      C662.652,461.468,661.54,458.603,660.281,455.799z" style="fill:#F9EB00;"/><path d="M577.477,402.995c-1.919,0.028-3.828,0.116-5.728,0.265      c-7.403,51.678-34.726,97.027-73.966,127.939c0.822,1.729,1.679,3.438,2.606,5.104      C541.479,504.299,570.047,456.979,577.477,402.995z" style="fill:#F9EB00;"/><path d="M587.286,403.389c-1.875-0.181-3.756-0.306-5.642-0.368      c-7.485,55.482-36.854,104.115-79.143,136.876c0.992,1.601,2.049,3.157,3.14,4.689      C549.336,510.868,579.66,460.678,587.286,403.389z" style="fill:#F9EB00;"/><path d="M624.935,415.873c-0.501-0.303-1.002-0.605-1.511-0.899c-1.226-0.708-2.472-1.375-3.727-2.022      c-9.626,62.32-42.569,117.021-89.618,154.914c1.23,0.791,2.483,1.555,3.759,2.291c0.467,0.27,0.941,0.524,1.412,0.785      C581.985,532.656,614.803,478.025,624.935,415.873z" style="fill:#F9EB00;"/><path d="M596.947,404.868c-1.843-0.385-3.697-0.711-5.561-0.98      c-7.765,58.427-38.707,109.614-83.28,143.998c1.163,1.482,2.379,2.921,3.636,4.327      C557.307,516.985,588.938,464.614,596.947,404.868z" style="fill:#F9EB00;"/></g><g><path d="M530.068,274.54c1.052,2.971,2.374,5.871,3.982,8.66c1.615,2.801,3.482,5.41,5.554,7.816      C536.702,285.349,533.521,279.85,530.068,274.54z" style="fill:#F9EB00;"/><path d="M527.488,263.479c8.027,10.936,14.915,22.757,20.468,35.296c2.569,1.905,5.309,3.57,8.183,4.97      c-7.15-18.096-16.934-34.874-28.883-49.857C527.029,257.098,527.113,260.306,527.488,263.479z" style="fill:#F9EB00;"/><path d="M552.878,212.844c-0.876,0.506-1.728,1.041-2.567,1.591c23.162,25.26,40.939,55.515,51.515,88.96      c0.864-0.437,1.723-0.887,2.564-1.374c0.829-0.478,1.638-0.982,2.434-1.501c-10.744-33.363-28.5-63.591-51.539-88.966      C554.475,211.968,553.667,212.387,552.878,212.844z" style="fill:#F9EB00;"/><path d="M528.894,244.101c-0.369,1.38-0.666,2.767-0.919,4.157c14.178,17.07,25.562,36.53,33.431,57.698      c2.177,0.777,4.411,1.411,6.689,1.891c-8.581-24.572-21.749-47.003-38.444-66.305      C529.378,242.386,529.124,243.238,528.894,244.101z" style="fill:#F9EB00;"/><path d="M578.748,308.954c-9.399-28.927-24.802-55.164-44.736-77.256      c-1.007,1.754-1.918,3.568-2.717,5.445c18.216,20.619,32.434,44.835,41.406,71.457c1.97,0.231,3.963,0.356,5.972,0.356      C578.699,308.956,578.723,308.954,578.748,308.954z" style="fill:#F9EB00;"/><path d="M542.657,220.557c22.576,24.475,39.861,53.879,50.048,86.406      c1.804-0.516,3.585-1.121,5.328-1.833c-10.431-33.213-28.089-63.244-51.126-88.262      C545.419,218.026,543.998,219.255,542.657,220.557z" style="fill:#F9EB00;"/><path d="M618.135,290.51c1.467-1.749,2.812-3.595,4.032-5.528      c-10.624-29.061-26.248-55.734-45.808-78.999c-2.265,0.1-4.516,0.351-6.744,0.75      C590.714,231.111,607.315,259.459,618.135,290.51z" style="fill:#F9EB00;"/><path d="M624.822,280.245c1.202-2.449,2.206-5.014,3.019-7.668c-9.601-23.617-22.41-45.596-37.901-65.39      c-2.667-0.605-5.394-1.002-8.16-1.175C599.863,228.099,614.5,253.117,624.822,280.245z" style="fill:#F9EB00;"/><path d="M536.295,228.062c20.944,22.965,37.051,50.396,46.719,80.684      c1.903-0.164,3.797-0.412,5.668-0.787c-9.986-31.746-26.86-60.458-48.873-84.387      C538.558,225.005,537.379,226.498,536.295,228.062z" style="fill:#F9EB00;"/><path d="M629.462,265.7c0.681-4.155,0.849-8.336,0.513-12.467c-6.401-13.345-13.816-26.112-22.15-38.204      c-3.462-2.383-7.206-4.344-11.149-5.826C609.709,226.579,620.758,245.521,629.462,265.7z" style="fill:#F9EB00;"/><path d="M614.957,293.956c-10.864-32.084-27.984-61.303-49.916-86.199      c-1.976,0.544-3.921,1.208-5.825,1.986c22.712,25.295,40.309,55.251,51.141,88.257      C611.977,296.739,613.511,295.388,614.957,293.956z" style="fill:#F9EB00;"/></g><g><path d="M374.96,209.67c-16.16,0-31.78,2.341-46.548,6.688c2.304,1.408,4.678,2.712,7.112,3.912      c12.621-3.227,25.83-4.96,39.436-4.96c13.62,0,26.836,1.725,39.461,4.95c2.425-1.191,4.793-2.496,7.101-3.899      C406.747,212.017,391.126,209.67,374.96,209.67z" style="fill:#F9EB00;"/><path d="M374.96,176.23c26.119,0,51.078,5.07,73.943,14.267c1.077-1.567,2.106-3.173,3.087-4.817      c-23.789-9.709-49.79-15.08-77.03-15.08c-27.203,0-53.171,5.362-76.931,15.054c0.984,1.647,2.018,3.261,3.103,4.838      C323.971,181.311,348.88,176.23,374.96,176.23z" style="fill:#F9EB00;"/><path d="M374.96,219.44c-11.4,0-22.505,1.264-33.211,3.61c3.645,1.462,7.406,2.692,11.267,3.669      c7.164-1.067,14.488-1.639,21.944-1.639c7.456,0,14.781,0.562,21.949,1.618c3.848-0.977,7.617-2.206,11.284-3.675      C397.483,220.682,386.365,219.44,374.96,219.44z" style="fill:#F9EB00;"/><path d="M379.956,229.302c-1.659-0.057-3.323-0.093-4.996-0.093c-1.683,0-3.358,0.037-5.027,0.096      c1.678,0.094,3.366,0.146,5.067,0.146C376.659,229.452,378.31,229.394,379.956,229.302z" style="fill:#F9EB00;"/><path d="M374.96,166.46c27.99,0,54.692,5.563,79.094,15.599c0.889-1.66,1.721-3.349,2.501-5.06      c-25.167-10.403-52.707-16.168-81.595-16.168c-28.84,0-56.357,5.746-81.496,16.136c0.784,1.716,1.622,3.401,2.509,5.057      C320.351,172.001,347.02,166.46,374.96,166.46z" style="fill:#F9EB00;"/><path d="M374.96,78.47c25.069,0,49.416,3.139,72.679,9.026c-1.807-2.5-3.74-4.902-5.79-7.199      c-21.523-4.881-43.909-7.467-66.889-7.467c-22.954,0-45.314,2.592-66.816,7.474c-2.048,2.297-3.98,4.698-5.787,7.197      C325.599,81.619,349.916,78.47,374.96,78.47z" style="fill:#F9EB00;"/><path d="M285.827,148.452c0.186,1.945,0.435,3.872,0.744,5.78c27.341-10.991,57.161-17.072,88.389-17.072      c31.257,0,61.109,6.068,88.473,17.056c0.307-1.906,0.555-3.824,0.739-5.752c-27.644-10.917-57.735-16.944-89.212-16.944      C343.515,131.52,313.448,137.538,285.827,148.452z" style="fill:#F9EB00;"/><path d="M374.96,156.7c29.457,0,57.552,5.879,83.211,16.498c0.699-1.746,1.343-3.514,1.93-5.301      c-26.263-10.83-55.011-16.837-85.142-16.837c-30.095,0-58.822,5.988-85.059,16.809c0.591,1.79,1.235,3.556,1.933,5.294      C317.467,162.568,345.541,156.7,374.96,156.7z" style="fill:#F9EB00;"/><path d="M374.96,146.93c30.548,0,59.693,6.051,86.346,16.989c0.507-1.828,0.956-3.672,1.346-5.531      c-27.096-11.007-56.688-17.098-87.692-17.098c-30.976,0-60.543,6.09-87.618,17.089c0.393,1.864,0.844,3.707,1.352,5.526      C315.327,152.975,344.449,146.93,374.96,146.93z" style="fill:#F9EB00;"/><path d="M292.635,104.64c-0.943,2.197-1.802,4.437-2.57,6.72C316.835,102.701,345.356,98,374.96,98      c29.637,0,58.183,4.693,84.97,13.345c-0.767-2.277-1.624-4.512-2.565-6.703c-26.083-7.965-53.742-12.272-82.405-12.272      C346.33,92.37,318.695,96.677,292.635,104.64z" style="fill:#F9EB00;"/><path d="M374.96,199.91c-19.766,0-38.775,3.305-56.515,9.379c1.769,1.444,3.594,2.82,5.471,4.127      c16.118-5.109,33.262-7.877,51.044-7.877c17.803,0,34.971,2.759,51.1,7.869c1.876-1.301,3.708-2.666,5.484-4.108      C413.786,203.225,394.759,199.91,374.96,199.91z" style="fill:#F9EB00;"/><path d="M286.296,127.32c-0.289,2.056-0.51,4.133-0.657,6.231c27.837-10.343,57.923-16.011,89.321-16.011      c31.419,0,61.54,5.68,89.402,16.035c-0.146-2.094-0.366-4.169-0.654-6.222c-27.743-9.981-57.617-15.443-88.748-15.443      C343.862,111.91,314.01,117.358,286.296,127.32z" style="fill:#F9EB00;"/><path d="M298.883,92.677c-1.401,2.251-2.705,4.567-3.905,6.944c25.398-7.396,52.229-11.382,79.982-11.382      c27.784,0,54.647,3.987,80.068,11.394c-1.199-2.375-2.501-4.688-3.899-6.936C426.832,86.131,401.313,82.6,374.96,82.6      C348.647,82.6,323.152,86.12,298.883,92.677z" style="fill:#F9EB00;"/><path d="M288.6,116.172c-0.584,2.128-1.092,4.287-1.519,6.475c27.534-9.628,57.109-14.878,87.879-14.878      c30.81,0,60.406,5.254,87.962,14.892c-0.427-2.185-0.933-4.342-1.516-6.468c-27.18-9.104-56.238-14.054-86.445-14.054      C344.781,102.14,315.747,107.08,288.6,116.172z" style="fill:#F9EB00;"/><path d="M439.658,201.831c-20.146-7.548-41.938-11.692-64.698-11.692c-22.72,0-44.482,4.139-64.609,11.68      c1.443,1.505,2.936,2.961,4.48,4.363c18.808-6.728,39.041-10.412,60.13-10.412c21.111,0,41.376,3.689,60.198,10.423      C436.705,204.794,438.207,203.34,439.658,201.831z" style="fill:#F9EB00;"/><path d="M285.436,138.055c-0.012,0.602-0.023,1.205-0.023,1.811c0,1.409,0.037,2.809,0.101,4.201      c27.752-10.804,57.915-16.758,89.445-16.758c31.551,0,61.735,5.965,89.515,16.779c0.066-1.405,0.111-2.812,0.111-4.223      c0-0.603-0.011-1.204-0.023-1.804c-27.867-10.571-58.067-16.382-89.603-16.382C343.456,121.68,313.287,127.487,285.436,138.055z      " style="fill:#F9EB00;"/><path d="M374.96,180.37c-25.172,0-49.224,4.834-71.328,13.581c1.195,1.573,2.438,3.109,3.732,4.598      C328.37,190.463,351.154,186,374.96,186c23.853,0,46.676,4.449,67.711,12.542c1.294-1.487,2.542-3.02,3.74-4.597      C424.283,185.189,400.179,180.37,374.96,180.37z" style="fill:#F9EB00;"/></g></g></g></svg>