<?xml version="1.0" ?><svg id="Icons" viewBox="0 0 60 60" xmlns="http://www.w3.org/2000/svg"><title/><path d="M41.54492,39.56927a3.99309,3.99309,0,0,0-6.01318,4.36334A15.11239,15.11239,0,0,0,41.54492,39.56927Z"/><path d="M22.94629,39.7085a3.96939,3.96939,0,0,0-2.34229-.76514,4.038,4.038,0,0,0-.63428.05029,3.98236,3.98236,0,0,0-1.51465.57562,15.11239,15.11239,0,0,0,6.01318,4.36334,3.98552,3.98552,0,0,0-1.522-4.22412Z"/><circle cx="30" cy="30" r="3"/><path d="M18.80273,26.2915A3.94974,3.94974,0,0,0,17.39349,21.87a14.85773,14.85773,0,0,0-2.35535,7.16718A3.99187,3.99187,0,0,0,18.80273,26.2915Z"/><path d="M30,6A24,24,0,1,0,54,30,24.0275,24.0275,0,0,0,30,6Zm7.02,26.7998a.63471.63471,0,0,1,.05957-.18018.76551.76551,0,0,1,.09033-.17969c.04-.05029.08008-.1001.12012-.1499a1.0317,1.0317,0,0,1,1.41992,0c.04.0498.08008.09961.11963.1499a.76551.76551,0,0,1,.09033.17969.652.652,0,0,1,.06006.18018A1.54205,1.54205,0,0,1,39,33a.99042.99042,0,0,1-1,1,.83864.83864,0,0,1-.38037-.08008,1.03507,1.03507,0,0,1-.32959-.21,1.15552,1.15552,0,0,1-.21045-.33008A.999.999,0,0,1,37,33,1.46105,1.46105,0,0,1,37.02,32.7998ZM30,8a6,6,0,1,1-6,6A6.00656,6.00656,0,0,1,30,8Zm4.61963,15.91992a1.03507,1.03507,0,0,1-.32959-.21,1.01394,1.01394,0,0,1,0-1.41992,1.0317,1.0317,0,0,1,1.41992,0A1,1,0,0,1,35,24,.83864.83864,0,0,1,34.61963,23.91992ZM35,30a5,5,0,1,1-5-5A5.00589,5.00589,0,0,1,35,30ZM24.29,22.29a1.15319,1.15319,0,0,1,.32959-.21045.95937.95937,0,0,1,.58008-.05957.63471.63471,0,0,1,.18018.05957.5531.5531,0,0,1,.16992.09033c.06006.04.10986.08008.16016.12012A1.05235,1.05235,0,0,1,26,23a.99953.99953,0,0,1-.08008.37988,1.04271,1.04271,0,0,1-.21.33008c-.05029.04-.1001.08008-.16016.11963a.5531.5531,0,0,1-.16992.09033.652.652,0,0,1-.18018.06006A1.38371,1.38371,0,0,1,25,24a1.05235,1.05235,0,0,1-.71-.29,1.03554,1.03554,0,0,1-.21045-.33008A.999.999,0,0,1,24,23,1.05006,1.05006,0,0,1,24.29,22.29ZM21.07959,32.61963a.90758.90758,0,0,1,.54-.54.95937.95937,0,0,1,.58008-.05957.63471.63471,0,0,1,.18018.05957.75916.75916,0,0,1,.18018.09033c.0498.04.09961.08008.1499.12012a1.16214,1.16214,0,0,1,.21.32959A1,1,0,0,1,23,33a1.38371,1.38371,0,0,1-.02.19971.652.652,0,0,1-.06006.18018.75916.75916,0,0,1-.09033.18018c-.03955.0498-.07959.09961-.11963.1499-.05029.04-.1001.08008-.1499.11963a.75916.75916,0,0,1-.18018.09033.652.652,0,0,1-.18018.06006A1.38371,1.38371,0,0,1,22,34a1,1,0,0,1-.38037-.08008,1.16214,1.16214,0,0,1-.32959-.21c-.04-.05029-.08008-.1001-.12012-.1499a.75916.75916,0,0,1-.09033-.18018.63471.63471,0,0,1-.05957-.18018A1.318,1.318,0,0,1,21,33,.9995.9995,0,0,1,21.07959,32.61963ZM9.292,23.20166a6.00108,6.00108,0,1,1,3.85254,7.56055A6.00855,6.00855,0,0,1,9.292,23.20166ZM25.44971,46.47119a5.95955,5.95955,0,0,1-3.91553,2.39893,6.08522,6.08522,0,0,1-.95117.0752,6.00062,6.00062,0,1,1,4.8667-2.47412Zm5.47021-7.09131a.90089.90089,0,0,1-.54.54A.99953.99953,0,0,1,30,40a1.38349,1.38349,0,0,1-.2002-.02.652.652,0,0,1-.18018-.06006.76551.76551,0,0,1-.17969-.09033c-.05029-.03955-.1001-.07959-.1499-.11963a1.03554,1.03554,0,0,1-.21045-.33008A.999.999,0,0,1,29,39a1.3181,1.3181,0,0,1,.02-.2002.63471.63471,0,0,1,.05957-.18018.76551.76551,0,0,1,.09033-.17969c.04-.05029.08008-.1001.12012-.1499.0498-.04.09961-.08008.1499-.12012a.76551.76551,0,0,1,.17969-.09033A.63471.63471,0,0,1,29.7998,38.02a.959.959,0,0,1,.58008.05957A.93818.93818,0,0,1,30.71,38.29c.04.0498.08008.09961.11963.1499a.76551.76551,0,0,1,.09033.17969.652.652,0,0,1,.06006.18018A1.38349,1.38349,0,0,1,31,39,.99953.99953,0,0,1,30.91992,39.37988Zm14.41064,4.50293a6.0025,6.0025,0,0,1-5.91357,5.0625,6.08522,6.08522,0,0,1-.95117-.0752,6.00006,6.00006,0,1,1,6.86475-4.9873Zm1.5249-13.12061a6,6,0,1,1,3.49219-2.98242A5.98285,5.98285,0,0,1,46.85547,30.76221Z"/><path d="M30,2A28,28,0,1,0,58,30,28.03145,28.03145,0,0,0,30,2Zm0,54A26,26,0,1,1,56,30,26.02948,26.02948,0,0,1,30,56Z"/><path d="M26.28918,15.473a3.98808,3.98808,0,0,0,7.42163,0A15.11713,15.11713,0,0,0,26.28918,15.473Z"/><path d="M41.43748,23.23975a3.98423,3.98423,0,0,0,3.52443,5.79871A14.85761,14.85761,0,0,0,42.60651,21.87,3.96457,3.96457,0,0,0,41.43748,23.23975Z"/></svg>