<?xml version="1.0" ?><!DOCTYPE svg  PUBLIC '-//W3C//DTD SVG 1.1//EN'  'http://www.w3.org/Graphics/SVG/1.1/DTD/svg11.dtd'><svg enable-background="new 0 0 512 512" height="512px" id="Layer_1" version="1.1" viewBox="0 0 512 512" width="512px" xml:space="preserve" xmlns="http://www.w3.org/2000/svg" xmlns:xlink="http://www.w3.org/1999/xlink"><g><path d="M121.567,127.862H90.514v28.422h31.054V127.862z M111.567,146.284h-11.054v-8.422h11.054V146.284z"/><path d="M163.665,127.862h-31.054v28.422h31.054V127.862z M153.665,146.284h-11.054v-8.422h11.054V146.284z"/><path d="M205.763,127.862H174.71v28.422h31.053V127.862z M195.763,146.284H184.71v-8.422h11.053V146.284z"/><path d="M332.057,127.862h-31.054v28.422h31.054V127.862z M322.057,146.284h-11.054v-8.422h11.054V146.284z"/><path d="M374.154,127.862h-31.053v28.422h31.053V127.862z M364.154,146.284h-11.053v-8.422h11.053V146.284z"/><path d="M416.252,127.862h-31.053v28.422h31.053V127.862z M406.252,146.284h-11.053v-8.422h11.053V146.284z"/><path d="M90.514,387.823h31.054v-28.422H90.514V387.823z M100.514,369.401h11.054v8.422h-11.054V369.401z"/><path d="M132.611,387.823h31.054v-28.422h-31.054V387.823z M142.611,369.401h11.054v8.422h-11.054V369.401z"/><path d="M258.905,387.823h31.054v-28.422h-31.054V387.823z M268.905,369.401h11.054v8.422h-11.054V369.401z"/><path d="M301.003,387.823h31.054v-28.422h-31.054V387.823z M311.003,369.401h11.054v8.422h-11.054V369.401z"/><path d="M343.102,387.823h31.053v-28.422h-31.053V387.823z M353.102,369.401h11.053v8.422h-11.053V369.401z"/><path d="M385.199,387.823h31.053v-28.422h-31.053V387.823z M395.199,369.401h11.053v8.422h-11.053V369.401z"/><path d="M215.048,234.25l30.874-124.188H70.168v294.872h136.166l71.959-170.684H215.048z M263.225,244.25l-40.746,96.646H80.168   V173.383h139.707l-17.618,70.867H263.225z M233.131,120.062l-10.77,43.321H80.168v-43.321H233.131z M205.763,380.547v-21.146   H174.71v28.422h27.985l-2.998,7.11H80.168v-44.037h138.095L205.763,380.547z M195.763,369.401v8.422H184.71v-8.422H195.763z"/><path d="M252.842,110.062v101.209h96.233L214.81,404.934H438V110.062H252.842z M428,120.062v43.321H262.842v-7.099h27.117v-28.422   h-27.117v-7.801H428z M268.905,146.284v-8.422h11.054v8.422H268.905z M262.842,201.271v-27.888H428v167.514H271.375l96.802-139.626   H262.842z M233.911,394.934l30.53-44.037H428v44.037H233.911z"/></g></svg>