<?xml version="1.0" ?><svg viewBox="0 0 48 48" xmlns="http://www.w3.org/2000/svg"><title/><path d="M36.77,12.36A1,1,0,0,0,36,12H34V1a1,1,0,0,0-1-1H15a1,1,0,0,0-1,1V12H12a1,1,0,0,0-.77.36l-5,6A1,1,0,0,0,6,19V47a1,1,0,0,0,1,1H41a1,1,0,0,0,1-1V19a1,1,0,0,0-.23-.64ZM16,2H32V15H16ZM12.47,14H14v1H13v2H35V15H34V14h1.53l3.34,4H9.13ZM40,46H8V20H40Z"/><path d="M13,42H35a1,1,0,0,0,1-1V33a1,1,0,0,0-1-1H13a1,1,0,0,0-1,1v8A1,1,0,0,0,13,42Zm1-8H34v6H14Z"/><path d="M28.9,6.47l-2.77-.41L24.9,3.56a1,1,0,0,0-1.8,0l-1.23,2.5-2.77.41a1,1,0,0,0-.81.68,1,1,0,0,0,.26,1l2,1.95-.47,2.76a1,1,0,0,0,1.45,1L24,12.63l2.47,1.3a1,1,0,0,0,1.45-1l-.47-2.76,2-1.95a1,1,0,0,0,.26-1A1,1,0,0,0,28.9,6.47ZM25.68,9.06a1,1,0,0,0-.29.88l.22,1.28-1.14-.61a1.06,1.06,0,0,0-.94,0l-1.14.61.22-1.28a1,1,0,0,0-.29-.88l-.93-.91L22.67,8a1,1,0,0,0,.76-.55L24,6.26l.57,1.16a1,1,0,0,0,.76.55l1.28.18Z"/></svg>